<?xml version="1.0" encoding="UTF-8" standalone="no"?>
<!DOCTYPE svg PUBLIC "-//W3C//DTD SVG 1.1//EN"
 "http://www.w3.org/Graphics/SVG/1.1/DTD/svg11.dtd">
<!-- Generated by graphviz version 2.40.1 (20161225.0304)
 -->
<!-- Title: G Pages: 1 -->
<svg width="1328pt" height="588pt"
 viewBox="0.00 0.00 1328.00 588.00" xmlns="http://www.w3.org/2000/svg" xmlns:xlink="http://www.w3.org/1999/xlink">
<g id="graph0" class="graph" transform="scale(1 1) rotate(0) translate(4 584)">
<title>G</title>
<polygon fill="#ffffff" stroke="transparent" points="-4,4 -4,-584 1324,-584 1324,4 -4,4"/>
<!-- Inodo_0 -->
<g id="node1" class="node">
<title>Inodo_0</title>
<polygon fill="#333333" stroke="transparent" points="8,-554 8,-576 408,-576 408,-554 8,-554"/>
<polygon fill="none" stroke="#000000" points="8,-554 8,-576 408,-576 408,-554 8,-554"/>
<text text-anchor="start" x="184.6697" y="-561.4" font-family="Times,serif" font-weight="bold" font-size="14.00" fill="#000000">Inodo_0</text>
<polygon fill="#dddddd" stroke="transparent" points="8,-532 8,-554 158,-554 158,-532 8,-532"/>
<polygon fill="none" stroke="#000000" points="8,-532 8,-554 158,-554 158,-532 8,-532"/>
<text text-anchor="start" x="71.3394" y="-538.4" font-family="Times,serif" font-size="14.00" fill="#000000">IuId</text>
<polygon fill="#dddddd" stroke="transparent" points="158,-532 158,-554 408,-554 408,-532 158,-532"/>
<polygon fill="none" stroke="#000000" points="158,-532 158,-554 408,-554 408,-532 158,-532"/>
<text text-anchor="start" x="279.5" y="-538.4" font-family="Times,serif" font-size="14.00" fill="#000000">1</text>
<polygon fill="#ffffff" stroke="transparent" points="8,-510 8,-532 158,-532 158,-510 8,-510"/>
<polygon fill="none" stroke="#000000" points="8,-510 8,-532 158,-532 158,-510 8,-510"/>
<text text-anchor="start" x="70.1711" y="-516.4" font-family="Times,serif" font-size="14.00" fill="#000000">IGid</text>
<polygon fill="#ffffff" stroke="transparent" points="158,-510 158,-532 408,-532 408,-510 158,-510"/>
<polygon fill="none" stroke="#000000" points="158,-510 158,-532 408,-532 408,-510 158,-510"/>
<text text-anchor="start" x="279.5" y="-516.4" font-family="Times,serif" font-size="14.00" fill="#000000">1</text>
<polygon fill="#dddddd" stroke="transparent" points="8,-488 8,-510 158,-510 158,-488 8,-488"/>
<polygon fill="none" stroke="#000000" points="8,-488 8,-510 158,-510 158,-488 8,-488"/>
<text text-anchor="start" x="68.6185" y="-494.4" font-family="Times,serif" font-size="14.00" fill="#000000">ISize</text>
<polygon fill="#dddddd" stroke="transparent" points="158,-488 158,-510 408,-510 408,-488 158,-488"/>
<polygon fill="none" stroke="#000000" points="158,-488 158,-510 408,-510 408,-488 158,-488"/>
<text text-anchor="start" x="279.5" y="-494.4" font-family="Times,serif" font-size="14.00" fill="#000000">0</text>
<polygon fill="#ffffff" stroke="transparent" points="8,-466 8,-488 158,-488 158,-466 8,-466"/>
<polygon fill="none" stroke="#000000" points="8,-466 8,-488 158,-488 158,-466 8,-466"/>
<text text-anchor="start" x="63.1732" y="-472.4" font-family="Times,serif" font-size="14.00" fill="#000000">IAtime</text>
<polygon fill="#ffffff" stroke="transparent" points="158,-466 158,-488 408,-488 408,-466 158,-466"/>
<polygon fill="none" stroke="#000000" points="158,-466 158,-488 408,-488 408,-466 158,-466"/>
<text text-anchor="start" x="217.2819" y="-472.4" font-family="Times,serif" font-size="14.00" fill="#000000">17&#45;Sep&#45;2024 10:16 PM</text>
<polygon fill="#dddddd" stroke="transparent" points="8,-444 8,-466 158,-466 158,-444 8,-444"/>
<polygon fill="none" stroke="#000000" points="8,-444 8,-466 158,-466 158,-444 8,-444"/>
<text text-anchor="start" x="61.2272" y="-450.4" font-family="Times,serif" font-size="14.00" fill="#000000">ICTime</text>
<polygon fill="#dddddd" stroke="transparent" points="158,-444 158,-466 408,-466 408,-444 158,-444"/>
<polygon fill="none" stroke="#000000" points="158,-444 158,-466 408,-466 408,-444 158,-444"/>
<text text-anchor="start" x="217.2819" y="-450.4" font-family="Times,serif" font-size="14.00" fill="#000000">17&#45;Sep&#45;2024 10:16 PM</text>
<polygon fill="#ffffff" stroke="transparent" points="8,-422 8,-444 158,-444 158,-422 8,-422"/>
<polygon fill="none" stroke="#000000" points="8,-422 8,-444 158,-444 158,-422 8,-422"/>
<text text-anchor="start" x="59.6732" y="-428.4" font-family="Times,serif" font-size="14.00" fill="#000000">IMTime</text>
<polygon fill="#ffffff" stroke="transparent" points="158,-422 158,-444 408,-444 408,-422 158,-422"/>
<polygon fill="none" stroke="#000000" points="158,-422 158,-444 408,-444 408,-422 158,-422"/>
<text text-anchor="start" x="217.2819" y="-428.4" font-family="Times,serif" font-size="14.00" fill="#000000">17&#45;Sep&#45;2024 10:16 PM</text>
<polygon fill="#dddddd" stroke="transparent" points="8,-400 8,-422 158,-422 158,-400 8,-400"/>
<polygon fill="none" stroke="#000000" points="8,-400 8,-422 158,-422 158,-400 8,-400"/>
<text text-anchor="start" x="66.2861" y="-406.4" font-family="Times,serif" font-size="14.00" fill="#000000">IType</text>
<polygon fill="#dddddd" stroke="transparent" points="158,-400 158,-422 408,-422 408,-400 158,-400"/>
<polygon fill="none" stroke="#000000" points="158,-400 158,-422 408,-422 408,-400 158,-400"/>
<text text-anchor="start" x="279.5" y="-406.4" font-family="Times,serif" font-size="14.00" fill="#000000">0</text>
<polygon fill="#ffffff" stroke="transparent" points="8,-378 8,-400 158,-400 158,-378 8,-378"/>
<polygon fill="none" stroke="#000000" points="8,-378 8,-400 158,-400 158,-378 8,-378"/>
<text text-anchor="start" x="65.8955" y="-384.4" font-family="Times,serif" font-size="14.00" fill="#000000">IPerm</text>
<polygon fill="#ffffff" stroke="transparent" points="158,-378 158,-400 408,-400 408,-378 158,-378"/>
<polygon fill="none" stroke="#000000" points="158,-378 158,-400 408,-400 408,-378 158,-378"/>
<text text-anchor="start" x="272.5" y="-384.4" font-family="Times,serif" font-size="14.00" fill="#000000">777</text>
<polygon fill="#333333" stroke="transparent" points="8,-356 8,-378 408,-378 408,-356 8,-356"/>
<polygon fill="none" stroke="#000000" points="8,-356 8,-378 408,-378 408,-356 8,-356"/>
<text text-anchor="start" x="169.318" y="-363.4" font-family="Times,serif" font-weight="bold" font-size="14.00" fill="#000000">Direct Blocks</text>
<polygon fill="#ffffff" stroke="transparent" points="8,-334 8,-356 158,-356 158,-334 8,-334"/>
<polygon fill="none" stroke="#000000" points="8,-334 8,-356 158,-356 158,-334 8,-334"/>
<text text-anchor="start" x="58.6988" y="-340.4" font-family="Times,serif" font-size="14.00" fill="#000000">IBlock 0</text>
<polygon fill="#ffffff" stroke="transparent" points="158,-334 158,-356 408,-356 408,-334 158,-334"/>
<polygon fill="none" stroke="#000000" points="158,-334 158,-356 408,-356 408,-334 158,-334"/>
<text text-anchor="start" x="279.5" y="-340.4" font-family="Times,serif" font-size="14.00" fill="#000000">0</text>
<polygon fill="#dddddd" stroke="transparent" points="8,-312 8,-334 158,-334 158,-312 8,-312"/>
<polygon fill="none" stroke="#000000" points="8,-312 8,-334 158,-334 158,-312 8,-312"/>
<text text-anchor="start" x="58.6988" y="-318.4" font-family="Times,serif" font-size="14.00" fill="#000000">IBlock 1</text>
<polygon fill="#dddddd" stroke="transparent" points="158,-312 158,-334 408,-334 408,-312 158,-312"/>
<polygon fill="none" stroke="#000000" points="158,-312 158,-334 408,-334 408,-312 158,-312"/>
<text text-anchor="start" x="277.1697" y="-318.4" font-family="Times,serif" font-size="14.00" fill="#000000">&#45;1</text>
<polygon fill="#ffffff" stroke="transparent" points="8,-290 8,-312 158,-312 158,-290 8,-290"/>
<polygon fill="none" stroke="#000000" points="8,-290 8,-312 158,-312 158,-290 8,-290"/>
<text text-anchor="start" x="58.6988" y="-296.4" font-family="Times,serif" font-size="14.00" fill="#000000">IBlock 2</text>
<polygon fill="#ffffff" stroke="transparent" points="158,-290 158,-312 408,-312 408,-290 158,-290"/>
<polygon fill="none" stroke="#000000" points="158,-290 158,-312 408,-312 408,-290 158,-290"/>
<text text-anchor="start" x="277.1697" y="-296.4" font-family="Times,serif" font-size="14.00" fill="#000000">&#45;1</text>
<polygon fill="#dddddd" stroke="transparent" points="8,-268 8,-290 158,-290 158,-268 8,-268"/>
<polygon fill="none" stroke="#000000" points="8,-268 8,-290 158,-290 158,-268 8,-268"/>
<text text-anchor="start" x="58.6988" y="-274.4" font-family="Times,serif" font-size="14.00" fill="#000000">IBlock 3</text>
<polygon fill="#dddddd" stroke="transparent" points="158,-268 158,-290 408,-290 408,-268 158,-268"/>
<polygon fill="none" stroke="#000000" points="158,-268 158,-290 408,-290 408,-268 158,-268"/>
<text text-anchor="start" x="277.1697" y="-274.4" font-family="Times,serif" font-size="14.00" fill="#000000">&#45;1</text>
<polygon fill="#ffffff" stroke="transparent" points="8,-246 8,-268 158,-268 158,-246 8,-246"/>
<polygon fill="none" stroke="#000000" points="8,-246 8,-268 158,-268 158,-246 8,-246"/>
<text text-anchor="start" x="58.6988" y="-252.4" font-family="Times,serif" font-size="14.00" fill="#000000">IBlock 4</text>
<polygon fill="#ffffff" stroke="transparent" points="158,-246 158,-268 408,-268 408,-246 158,-246"/>
<polygon fill="none" stroke="#000000" points="158,-246 158,-268 408,-268 408,-246 158,-246"/>
<text text-anchor="start" x="277.1697" y="-252.4" font-family="Times,serif" font-size="14.00" fill="#000000">&#45;1</text>
<polygon fill="#dddddd" stroke="transparent" points="8,-224 8,-246 158,-246 158,-224 8,-224"/>
<polygon fill="none" stroke="#000000" points="8,-224 8,-246 158,-246 158,-224 8,-224"/>
<text text-anchor="start" x="58.6988" y="-230.4" font-family="Times,serif" font-size="14.00" fill="#000000">IBlock 5</text>
<polygon fill="#dddddd" stroke="transparent" points="158,-224 158,-246 408,-246 408,-224 158,-224"/>
<polygon fill="none" stroke="#000000" points="158,-224 158,-246 408,-246 408,-224 158,-224"/>
<text text-anchor="start" x="277.1697" y="-230.4" font-family="Times,serif" font-size="14.00" fill="#000000">&#45;1</text>
<polygon fill="#ffffff" stroke="transparent" points="8,-202 8,-224 158,-224 158,-202 8,-202"/>
<polygon fill="none" stroke="#000000" points="8,-202 8,-224 158,-224 158,-202 8,-202"/>
<text text-anchor="start" x="58.6988" y="-208.4" font-family="Times,serif" font-size="14.00" fill="#000000">IBlock 6</text>
<polygon fill="#ffffff" stroke="transparent" points="158,-202 158,-224 408,-224 408,-202 158,-202"/>
<polygon fill="none" stroke="#000000" points="158,-202 158,-224 408,-224 408,-202 158,-202"/>
<text text-anchor="start" x="277.1697" y="-208.4" font-family="Times,serif" font-size="14.00" fill="#000000">&#45;1</text>
<polygon fill="#dddddd" stroke="transparent" points="8,-180 8,-202 158,-202 158,-180 8,-180"/>
<polygon fill="none" stroke="#000000" points="8,-180 8,-202 158,-202 158,-180 8,-180"/>
<text text-anchor="start" x="58.6988" y="-186.4" font-family="Times,serif" font-size="14.00" fill="#000000">IBlock 7</text>
<polygon fill="#dddddd" stroke="transparent" points="158,-180 158,-202 408,-202 408,-180 158,-180"/>
<polygon fill="none" stroke="#000000" points="158,-180 158,-202 408,-202 408,-180 158,-180"/>
<text text-anchor="start" x="277.1697" y="-186.4" font-family="Times,serif" font-size="14.00" fill="#000000">&#45;1</text>
<polygon fill="#ffffff" stroke="transparent" points="8,-158 8,-180 158,-180 158,-158 8,-158"/>
<polygon fill="none" stroke="#000000" points="8,-158 8,-180 158,-180 158,-158 8,-158"/>
<text text-anchor="start" x="58.6988" y="-164.4" font-family="Times,serif" font-size="14.00" fill="#000000">IBlock 8</text>
<polygon fill="#ffffff" stroke="transparent" points="158,-158 158,-180 408,-180 408,-158 158,-158"/>
<polygon fill="none" stroke="#000000" points="158,-158 158,-180 408,-180 408,-158 158,-158"/>
<text text-anchor="start" x="277.1697" y="-164.4" font-family="Times,serif" font-size="14.00" fill="#000000">&#45;1</text>
<polygon fill="#dddddd" stroke="transparent" points="8,-136 8,-158 158,-158 158,-136 8,-136"/>
<polygon fill="none" stroke="#000000" points="8,-136 8,-158 158,-158 158,-136 8,-136"/>
<text text-anchor="start" x="58.6988" y="-142.4" font-family="Times,serif" font-size="14.00" fill="#000000">IBlock 9</text>
<polygon fill="#dddddd" stroke="transparent" points="158,-136 158,-158 408,-158 408,-136 158,-136"/>
<polygon fill="none" stroke="#000000" points="158,-136 158,-158 408,-158 408,-136 158,-136"/>
<text text-anchor="start" x="277.1697" y="-142.4" font-family="Times,serif" font-size="14.00" fill="#000000">&#45;1</text>
<polygon fill="#ffffff" stroke="transparent" points="8,-114 8,-136 158,-136 158,-114 8,-114"/>
<polygon fill="none" stroke="#000000" points="8,-114 8,-136 158,-136 158,-114 8,-114"/>
<text text-anchor="start" x="55.1988" y="-120.4" font-family="Times,serif" font-size="14.00" fill="#000000">IBlock 10</text>
<polygon fill="#ffffff" stroke="transparent" points="158,-114 158,-136 408,-136 408,-114 158,-114"/>
<polygon fill="none" stroke="#000000" points="158,-114 158,-136 408,-136 408,-114 158,-114"/>
<text text-anchor="start" x="277.1697" y="-120.4" font-family="Times,serif" font-size="14.00" fill="#000000">&#45;1</text>
<polygon fill="#dddddd" stroke="transparent" points="8,-92 8,-114 158,-114 158,-92 8,-92"/>
<polygon fill="none" stroke="#000000" points="8,-92 8,-114 158,-114 158,-92 8,-92"/>
<text text-anchor="start" x="55.1988" y="-98.4" font-family="Times,serif" font-size="14.00" fill="#000000">IBlock 11</text>
<polygon fill="#dddddd" stroke="transparent" points="158,-92 158,-114 408,-114 408,-92 158,-92"/>
<polygon fill="none" stroke="#000000" points="158,-92 158,-114 408,-114 408,-92 158,-92"/>
<text text-anchor="start" x="277.1697" y="-98.4" font-family="Times,serif" font-size="14.00" fill="#000000">&#45;1</text>
<polygon fill="#333333" stroke="transparent" points="8,-70 8,-92 408,-92 408,-70 8,-70"/>
<polygon fill="none" stroke="#000000" points="8,-70 8,-92 408,-92 408,-70 8,-70"/>
<text text-anchor="start" x="165.041" y="-77.4" font-family="Times,serif" font-weight="bold" font-size="14.00" fill="#000000">Indirect Blocks</text>
<polygon fill="#ffffff" stroke="transparent" points="8,-48 8,-70 158,-70 158,-48 8,-48"/>
<polygon fill="none" stroke="#000000" points="8,-48 8,-70 158,-70 158,-48 8,-48"/>
<text text-anchor="start" x="55.1988" y="-54.4" font-family="Times,serif" font-size="14.00" fill="#000000">IBlock 12</text>
<polygon fill="#ffffff" stroke="transparent" points="158,-48 158,-70 408,-70 408,-48 158,-48"/>
<polygon fill="none" stroke="#000000" points="158,-48 158,-70 408,-70 408,-48 158,-48"/>
<text text-anchor="start" x="277.1697" y="-54.4" font-family="Times,serif" font-size="14.00" fill="#000000">&#45;1</text>
<polygon fill="#dddddd" stroke="transparent" points="8,-26 8,-48 158,-48 158,-26 8,-26"/>
<polygon fill="none" stroke="#000000" points="8,-26 8,-48 158,-48 158,-26 8,-26"/>
<text text-anchor="start" x="55.1988" y="-32.4" font-family="Times,serif" font-size="14.00" fill="#000000">IBlock 13</text>
<polygon fill="#dddddd" stroke="transparent" points="158,-26 158,-48 408,-48 408,-26 158,-26"/>
<polygon fill="none" stroke="#000000" points="158,-26 158,-48 408,-48 408,-26 158,-26"/>
<text text-anchor="start" x="277.1697" y="-32.4" font-family="Times,serif" font-size="14.00" fill="#000000">&#45;1</text>
<polygon fill="#ffffff" stroke="transparent" points="8,-4 8,-26 158,-26 158,-4 8,-4"/>
<polygon fill="none" stroke="#000000" points="8,-4 8,-26 158,-26 158,-4 8,-4"/>
<text text-anchor="start" x="55.1988" y="-10.4" font-family="Times,serif" font-size="14.00" fill="#000000">IBlock 14</text>
<polygon fill="#ffffff" stroke="transparent" points="158,-4 158,-26 408,-26 408,-4 158,-4"/>
<polygon fill="none" stroke="#000000" points="158,-4 158,-26 408,-26 408,-4 158,-4"/>
<text text-anchor="start" x="277.1697" y="-10.4" font-family="Times,serif" font-size="14.00" fill="#000000">&#45;1</text>
</g>
<!-- Inodo_1 -->
<g id="node2" class="node">
<title>Inodo_1</title>
<polygon fill="#333333" stroke="transparent" points="460,-554 460,-576 860,-576 860,-554 460,-554"/>
<polygon fill="none" stroke="#000000" points="460,-554 460,-576 860,-576 860,-554 460,-554"/>
<text text-anchor="start" x="636.6697" y="-561.4" font-family="Times,serif" font-weight="bold" font-size="14.00" fill="#000000">Inodo_1</text>
<polygon fill="#dddddd" stroke="transparent" points="460,-532 460,-554 610,-554 610,-532 460,-532"/>
<polygon fill="none" stroke="#000000" points="460,-532 460,-554 610,-554 610,-532 460,-532"/>
<text text-anchor="start" x="523.3394" y="-538.4" font-family="Times,serif" font-size="14.00" fill="#000000">IuId</text>
<polygon fill="#dddddd" stroke="transparent" points="610,-532 610,-554 860,-554 860,-532 610,-532"/>
<polygon fill="none" stroke="#000000" points="610,-532 610,-554 860,-554 860,-532 610,-532"/>
<text text-anchor="start" x="731.5" y="-538.4" font-family="Times,serif" font-size="14.00" fill="#000000">1</text>
<polygon fill="#ffffff" stroke="transparent" points="460,-510 460,-532 610,-532 610,-510 460,-510"/>
<polygon fill="none" stroke="#000000" points="460,-510 460,-532 610,-532 610,-510 460,-510"/>
<text text-anchor="start" x="522.1711" y="-516.4" font-family="Times,serif" font-size="14.00" fill="#000000">IGid</text>
<polygon fill="#ffffff" stroke="transparent" points="610,-510 610,-532 860,-532 860,-510 610,-510"/>
<polygon fill="none" stroke="#000000" points="610,-510 610,-532 860,-532 860,-510 610,-510"/>
<text text-anchor="start" x="731.5" y="-516.4" font-family="Times,serif" font-size="14.00" fill="#000000">1</text>
<polygon fill="#dddddd" stroke="transparent" points="460,-488 460,-510 610,-510 610,-488 460,-488"/>
<polygon fill="none" stroke="#000000" points="460,-488 460,-510 610,-510 610,-488 460,-488"/>
<text text-anchor="start" x="520.6185" y="-494.4" font-family="Times,serif" font-size="14.00" fill="#000000">ISize</text>
<polygon fill="#dddddd" stroke="transparent" points="610,-488 610,-510 860,-510 860,-488 610,-488"/>
<polygon fill="none" stroke="#000000" points="610,-488 610,-510 860,-510 860,-488 610,-488"/>
<text text-anchor="start" x="728" y="-494.4" font-family="Times,serif" font-size="14.00" fill="#000000">27</text>
<polygon fill="#ffffff" stroke="transparent" points="460,-466 460,-488 610,-488 610,-466 460,-466"/>
<polygon fill="none" stroke="#000000" points="460,-466 460,-488 610,-488 610,-466 460,-466"/>
<text text-anchor="start" x="515.1732" y="-472.4" font-family="Times,serif" font-size="14.00" fill="#000000">IAtime</text>
<polygon fill="#ffffff" stroke="transparent" points="610,-466 610,-488 860,-488 860,-466 610,-466"/>
<polygon fill="none" stroke="#000000" points="610,-466 610,-488 860,-488 860,-466 610,-466"/>
<text text-anchor="start" x="669.2819" y="-472.4" font-family="Times,serif" font-size="14.00" fill="#000000">17&#45;Sep&#45;2024 10:16 PM</text>
<polygon fill="#dddddd" stroke="transparent" points="460,-444 460,-466 610,-466 610,-444 460,-444"/>
<polygon fill="none" stroke="#000000" points="460,-444 460,-466 610,-466 610,-444 460,-444"/>
<text text-anchor="start" x="513.2272" y="-450.4" font-family="Times,serif" font-size="14.00" fill="#000000">ICTime</text>
<polygon fill="#dddddd" stroke="transparent" points="610,-444 610,-466 860,-466 860,-444 610,-444"/>
<polygon fill="none" stroke="#000000" points="610,-444 610,-466 860,-466 860,-444 610,-444"/>
<text text-anchor="start" x="669.2819" y="-450.4" font-family="Times,serif" font-size="14.00" fill="#000000">17&#45;Sep&#45;2024 10:16 PM</text>
<polygon fill="#ffffff" stroke="transparent" points="460,-422 460,-444 610,-444 610,-422 460,-422"/>
<polygon fill="none" stroke="#000000" points="460,-422 460,-444 610,-444 610,-422 460,-422"/>
<text text-anchor="start" x="511.6732" y="-428.4" font-family="Times,serif" font-size="14.00" fill="#000000">IMTime</text>
<polygon fill="#ffffff" stroke="transparent" points="610,-422 610,-444 860,-444 860,-422 610,-422"/>
<polygon fill="none" stroke="#000000" points="610,-422 610,-444 860,-444 860,-422 610,-422"/>
<text text-anchor="start" x="669.2819" y="-428.4" font-family="Times,serif" font-size="14.00" fill="#000000">17&#45;Sep&#45;2024 10:16 PM</text>
<polygon fill="#dddddd" stroke="transparent" points="460,-400 460,-422 610,-422 610,-400 460,-400"/>
<polygon fill="none" stroke="#000000" points="460,-400 460,-422 610,-422 610,-400 460,-400"/>
<text text-anchor="start" x="518.2861" y="-406.4" font-family="Times,serif" font-size="14.00" fill="#000000">IType</text>
<polygon fill="#dddddd" stroke="transparent" points="610,-400 610,-422 860,-422 860,-400 610,-400"/>
<polygon fill="none" stroke="#000000" points="610,-400 610,-422 860,-422 860,-400 610,-400"/>
<text text-anchor="start" x="731.5" y="-406.4" font-family="Times,serif" font-size="14.00" fill="#000000">1</text>
<polygon fill="#ffffff" stroke="transparent" points="460,-378 460,-400 610,-400 610,-378 460,-378"/>
<polygon fill="none" stroke="#000000" points="460,-378 460,-400 610,-400 610,-378 460,-378"/>
<text text-anchor="start" x="517.8955" y="-384.4" font-family="Times,serif" font-size="14.00" fill="#000000">IPerm</text>
<polygon fill="#ffffff" stroke="transparent" points="610,-378 610,-400 860,-400 860,-378 610,-378"/>
<polygon fill="none" stroke="#000000" points="610,-378 610,-400 860,-400 860,-378 610,-378"/>
<text text-anchor="start" x="724.5" y="-384.4" font-family="Times,serif" font-size="14.00" fill="#000000">777</text>
<polygon fill="#333333" stroke="transparent" points="460,-356 460,-378 860,-378 860,-356 460,-356"/>
<polygon fill="none" stroke="#000000" points="460,-356 460,-378 860,-378 860,-356 460,-356"/>
<text text-anchor="start" x="621.318" y="-363.4" font-family="Times,serif" font-weight="bold" font-size="14.00" fill="#000000">Direct Blocks</text>
<polygon fill="#ffffff" stroke="transparent" points="460,-334 460,-356 610,-356 610,-334 460,-334"/>
<polygon fill="none" stroke="#000000" points="460,-334 460,-356 610,-356 610,-334 460,-334"/>
<text text-anchor="start" x="510.6988" y="-340.4" font-family="Times,serif" font-size="14.00" fill="#000000">IBlock 0</text>
<polygon fill="#ffffff" stroke="transparent" points="610,-334 610,-356 860,-356 860,-334 610,-334"/>
<polygon fill="none" stroke="#000000" points="610,-334 610,-356 860,-356 860,-334 610,-334"/>
<text text-anchor="start" x="731.5" y="-340.4" font-family="Times,serif" font-size="14.00" fill="#000000">1</text>
<polygon fill="#dddddd" stroke="transparent" points="460,-312 460,-334 610,-334 610,-312 460,-312"/>
<polygon fill="none" stroke="#000000" points="460,-312 460,-334 610,-334 610,-312 460,-312"/>
<text text-anchor="start" x="510.6988" y="-318.4" font-family="Times,serif" font-size="14.00" fill="#000000">IBlock 1</text>
<polygon fill="#dddddd" stroke="transparent" points="610,-312 610,-334 860,-334 860,-312 610,-312"/>
<polygon fill="none" stroke="#000000" points="610,-312 610,-334 860,-334 860,-312 610,-312"/>
<text text-anchor="start" x="729.1697" y="-318.4" font-family="Times,serif" font-size="14.00" fill="#000000">&#45;1</text>
<polygon fill="#ffffff" stroke="transparent" points="460,-290 460,-312 610,-312 610,-290 460,-290"/>
<polygon fill="none" stroke="#000000" points="460,-290 460,-312 610,-312 610,-290 460,-290"/>
<text text-anchor="start" x="510.6988" y="-296.4" font-family="Times,serif" font-size="14.00" fill="#000000">IBlock 2</text>
<polygon fill="#ffffff" stroke="transparent" points="610,-290 610,-312 860,-312 860,-290 610,-290"/>
<polygon fill="none" stroke="#000000" points="610,-290 610,-312 860,-312 860,-290 610,-290"/>
<text text-anchor="start" x="729.1697" y="-296.4" font-family="Times,serif" font-size="14.00" fill="#000000">&#45;1</text>
<polygon fill="#dddddd" stroke="transparent" points="460,-268 460,-290 610,-290 610,-268 460,-268"/>
<polygon fill="none" stroke="#000000" points="460,-268 460,-290 610,-290 610,-268 460,-268"/>
<text text-anchor="start" x="510.6988" y="-274.4" font-family="Times,serif" font-size="14.00" fill="#000000">IBlock 3</text>
<polygon fill="#dddddd" stroke="transparent" points="610,-268 610,-290 860,-290 860,-268 610,-268"/>
<polygon fill="none" stroke="#000000" points="610,-268 610,-290 860,-290 860,-268 610,-268"/>
<text text-anchor="start" x="729.1697" y="-274.4" font-family="Times,serif" font-size="14.00" fill="#000000">&#45;1</text>
<polygon fill="#ffffff" stroke="transparent" points="460,-246 460,-268 610,-268 610,-246 460,-246"/>
<polygon fill="none" stroke="#000000" points="460,-246 460,-268 610,-268 610,-246 460,-246"/>
<text text-anchor="start" x="510.6988" y="-252.4" font-family="Times,serif" font-size="14.00" fill="#000000">IBlock 4</text>
<polygon fill="#ffffff" stroke="transparent" points="610,-246 610,-268 860,-268 860,-246 610,-246"/>
<polygon fill="none" stroke="#000000" points="610,-246 610,-268 860,-268 860,-246 610,-246"/>
<text text-anchor="start" x="729.1697" y="-252.4" font-family="Times,serif" font-size="14.00" fill="#000000">&#45;1</text>
<polygon fill="#dddddd" stroke="transparent" points="460,-224 460,-246 610,-246 610,-224 460,-224"/>
<polygon fill="none" stroke="#000000" points="460,-224 460,-246 610,-246 610,-224 460,-224"/>
<text text-anchor="start" x="510.6988" y="-230.4" font-family="Times,serif" font-size="14.00" fill="#000000">IBlock 5</text>
<polygon fill="#dddddd" stroke="transparent" points="610,-224 610,-246 860,-246 860,-224 610,-224"/>
<polygon fill="none" stroke="#000000" points="610,-224 610,-246 860,-246 860,-224 610,-224"/>
<text text-anchor="start" x="729.1697" y="-230.4" font-family="Times,serif" font-size="14.00" fill="#000000">&#45;1</text>
<polygon fill="#ffffff" stroke="transparent" points="460,-202 460,-224 610,-224 610,-202 460,-202"/>
<polygon fill="none" stroke="#000000" points="460,-202 460,-224 610,-224 610,-202 460,-202"/>
<text text-anchor="start" x="510.6988" y="-208.4" font-family="Times,serif" font-size="14.00" fill="#000000">IBlock 6</text>
<polygon fill="#ffffff" stroke="transparent" points="610,-202 610,-224 860,-224 860,-202 610,-202"/>
<polygon fill="none" stroke="#000000" points="610,-202 610,-224 860,-224 860,-202 610,-202"/>
<text text-anchor="start" x="729.1697" y="-208.4" font-family="Times,serif" font-size="14.00" fill="#000000">&#45;1</text>
<polygon fill="#dddddd" stroke="transparent" points="460,-180 460,-202 610,-202 610,-180 460,-180"/>
<polygon fill="none" stroke="#000000" points="460,-180 460,-202 610,-202 610,-180 460,-180"/>
<text text-anchor="start" x="510.6988" y="-186.4" font-family="Times,serif" font-size="14.00" fill="#000000">IBlock 7</text>
<polygon fill="#dddddd" stroke="transparent" points="610,-180 610,-202 860,-202 860,-180 610,-180"/>
<polygon fill="none" stroke="#000000" points="610,-180 610,-202 860,-202 860,-180 610,-180"/>
<text text-anchor="start" x="729.1697" y="-186.4" font-family="Times,serif" font-size="14.00" fill="#000000">&#45;1</text>
<polygon fill="#ffffff" stroke="transparent" points="460,-158 460,-180 610,-180 610,-158 460,-158"/>
<polygon fill="none" stroke="#000000" points="460,-158 460,-180 610,-180 610,-158 460,-158"/>
<text text-anchor="start" x="510.6988" y="-164.4" font-family="Times,serif" font-size="14.00" fill="#000000">IBlock 8</text>
<polygon fill="#ffffff" stroke="transparent" points="610,-158 610,-180 860,-180 860,-158 610,-158"/>
<polygon fill="none" stroke="#000000" points="610,-158 610,-180 860,-180 860,-158 610,-158"/>
<text text-anchor="start" x="729.1697" y="-164.4" font-family="Times,serif" font-size="14.00" fill="#000000">&#45;1</text>
<polygon fill="#dddddd" stroke="transparent" points="460,-136 460,-158 610,-158 610,-136 460,-136"/>
<polygon fill="none" stroke="#000000" points="460,-136 460,-158 610,-158 610,-136 460,-136"/>
<text text-anchor="start" x="510.6988" y="-142.4" font-family="Times,serif" font-size="14.00" fill="#000000">IBlock 9</text>
<polygon fill="#dddddd" stroke="transparent" points="610,-136 610,-158 860,-158 860,-136 610,-136"/>
<polygon fill="none" stroke="#000000" points="610,-136 610,-158 860,-158 860,-136 610,-136"/>
<text text-anchor="start" x="729.1697" y="-142.4" font-family="Times,serif" font-size="14.00" fill="#000000">&#45;1</text>
<polygon fill="#ffffff" stroke="transparent" points="460,-114 460,-136 610,-136 610,-114 460,-114"/>
<polygon fill="none" stroke="#000000" points="460,-114 460,-136 610,-136 610,-114 460,-114"/>
<text text-anchor="start" x="507.1988" y="-120.4" font-family="Times,serif" font-size="14.00" fill="#000000">IBlock 10</text>
<polygon fill="#ffffff" stroke="transparent" points="610,-114 610,-136 860,-136 860,-114 610,-114"/>
<polygon fill="none" stroke="#000000" points="610,-114 610,-136 860,-136 860,-114 610,-114"/>
<text text-anchor="start" x="729.1697" y="-120.4" font-family="Times,serif" font-size="14.00" fill="#000000">&#45;1</text>
<polygon fill="#dddddd" stroke="transparent" points="460,-92 460,-114 610,-114 610,-92 460,-92"/>
<polygon fill="none" stroke="#000000" points="460,-92 460,-114 610,-114 610,-92 460,-92"/>
<text text-anchor="start" x="507.1988" y="-98.4" font-family="Times,serif" font-size="14.00" fill="#000000">IBlock 11</text>
<polygon fill="#dddddd" stroke="transparent" points="610,-92 610,-114 860,-114 860,-92 610,-92"/>
<polygon fill="none" stroke="#000000" points="610,-92 610,-114 860,-114 860,-92 610,-92"/>
<text text-anchor="start" x="729.1697" y="-98.4" font-family="Times,serif" font-size="14.00" fill="#000000">&#45;1</text>
<polygon fill="#333333" stroke="transparent" points="460,-70 460,-92 860,-92 860,-70 460,-70"/>
<polygon fill="none" stroke="#000000" points="460,-70 460,-92 860,-92 860,-70 460,-70"/>
<text text-anchor="start" x="617.041" y="-77.4" font-family="Times,serif" font-weight="bold" font-size="14.00" fill="#000000">Indirect Blocks</text>
<polygon fill="#ffffff" stroke="transparent" points="460,-48 460,-70 610,-70 610,-48 460,-48"/>
<polygon fill="none" stroke="#000000" points="460,-48 460,-70 610,-70 610,-48 460,-48"/>
<text text-anchor="start" x="507.1988" y="-54.4" font-family="Times,serif" font-size="14.00" fill="#000000">IBlock 12</text>
<polygon fill="#ffffff" stroke="transparent" points="610,-48 610,-70 860,-70 860,-48 610,-48"/>
<polygon fill="none" stroke="#000000" points="610,-48 610,-70 860,-70 860,-48 610,-48"/>
<text text-anchor="start" x="729.1697" y="-54.4" font-family="Times,serif" font-size="14.00" fill="#000000">&#45;1</text>
<polygon fill="#dddddd" stroke="transparent" points="460,-26 460,-48 610,-48 610,-26 460,-26"/>
<polygon fill="none" stroke="#000000" points="460,-26 460,-48 610,-48 610,-26 460,-26"/>
<text text-anchor="start" x="507.1988" y="-32.4" font-family="Times,serif" font-size="14.00" fill="#000000">IBlock 13</text>
<polygon fill="#dddddd" stroke="transparent" points="610,-26 610,-48 860,-48 860,-26 610,-26"/>
<polygon fill="none" stroke="#000000" points="610,-26 610,-48 860,-48 860,-26 610,-26"/>
<text text-anchor="start" x="729.1697" y="-32.4" font-family="Times,serif" font-size="14.00" fill="#000000">&#45;1</text>
<polygon fill="#ffffff" stroke="transparent" points="460,-4 460,-26 610,-26 610,-4 460,-4"/>
<polygon fill="none" stroke="#000000" points="460,-4 460,-26 610,-26 610,-4 460,-4"/>
<text text-anchor="start" x="507.1988" y="-10.4" font-family="Times,serif" font-size="14.00" fill="#000000">IBlock 14</text>
<polygon fill="#ffffff" stroke="transparent" points="610,-4 610,-26 860,-26 860,-4 610,-4"/>
<polygon fill="none" stroke="#000000" points="610,-4 610,-26 860,-26 860,-4 610,-4"/>
<text text-anchor="start" x="729.1697" y="-10.4" font-family="Times,serif" font-size="14.00" fill="#000000">&#45;1</text>
</g>
<!-- Inodo_0&#45;&gt;Inodo_1 -->
<g id="edge1" class="edge">
<title>Inodo_0&#45;&gt;Inodo_1</title>
<path fill="none" stroke="#000000" d="M416.1396,-290C424.5404,-290 432.9743,-290 441.3945,-290"/>
<polygon fill="#000000" stroke="#000000" points="441.6554,-293.5001 451.6553,-290 441.6553,-286.5001 441.6554,-293.5001"/>
</g>
<!-- Inodo_2 -->
<g id="node3" class="node">
<title>Inodo_2</title>
<polygon fill="#333333" stroke="transparent" points="912,-554 912,-576 1312,-576 1312,-554 912,-554"/>
<polygon fill="none" stroke="#000000" points="912,-554 912,-576 1312,-576 1312,-554 912,-554"/>
<text text-anchor="start" x="1088.6697" y="-561.4" font-family="Times,serif" font-weight="bold" font-size="14.00" fill="#000000">Inodo_2</text>
<polygon fill="#dddddd" stroke="transparent" points="912,-532 912,-554 1062,-554 1062,-532 912,-532"/>
<polygon fill="none" stroke="#000000" points="912,-532 912,-554 1062,-554 1062,-532 912,-532"/>
<text text-anchor="start" x="975.3394" y="-538.4" font-family="Times,serif" font-size="14.00" fill="#000000">IuId</text>
<polygon fill="#dddddd" stroke="transparent" points="1062,-532 1062,-554 1312,-554 1312,-532 1062,-532"/>
<polygon fill="none" stroke="#000000" points="1062,-532 1062,-554 1312,-554 1312,-532 1062,-532"/>
<text text-anchor="start" x="1183.5" y="-538.4" font-family="Times,serif" font-size="14.00" fill="#000000">1</text>
<polygon fill="#ffffff" stroke="transparent" points="912,-510 912,-532 1062,-532 1062,-510 912,-510"/>
<polygon fill="none" stroke="#000000" points="912,-510 912,-532 1062,-532 1062,-510 912,-510"/>
<text text-anchor="start" x="974.1711" y="-516.4" font-family="Times,serif" font-size="14.00" fill="#000000">IGid</text>
<polygon fill="#ffffff" stroke="transparent" points="1062,-510 1062,-532 1312,-532 1312,-510 1062,-510"/>
<polygon fill="none" stroke="#000000" points="1062,-510 1062,-532 1312,-532 1312,-510 1062,-510"/>
<text text-anchor="start" x="1183.5" y="-516.4" font-family="Times,serif" font-size="14.00" fill="#000000">1</text>
<polygon fill="#dddddd" stroke="transparent" points="912,-488 912,-510 1062,-510 1062,-488 912,-488"/>
<polygon fill="none" stroke="#000000" points="912,-488 912,-510 1062,-510 1062,-488 912,-488"/>
<text text-anchor="start" x="972.6185" y="-494.4" font-family="Times,serif" font-size="14.00" fill="#000000">ISize</text>
<polygon fill="#dddddd" stroke="transparent" points="1062,-488 1062,-510 1312,-510 1312,-488 1062,-488"/>
<polygon fill="none" stroke="#000000" points="1062,-488 1062,-510 1312,-510 1312,-488 1062,-488"/>
<text text-anchor="start" x="1183.5" y="-494.4" font-family="Times,serif" font-size="14.00" fill="#000000">0</text>
<polygon fill="#ffffff" stroke="transparent" points="912,-466 912,-488 1062,-488 1062,-466 912,-466"/>
<polygon fill="none" stroke="#000000" points="912,-466 912,-488 1062,-488 1062,-466 912,-466"/>
<text text-anchor="start" x="967.1732" y="-472.4" font-family="Times,serif" font-size="14.00" fill="#000000">IAtime</text>
<polygon fill="#ffffff" stroke="transparent" points="1062,-466 1062,-488 1312,-488 1312,-466 1062,-466"/>
<polygon fill="none" stroke="#000000" points="1062,-466 1062,-488 1312,-488 1312,-466 1062,-466"/>
<text text-anchor="start" x="1121.2819" y="-472.4" font-family="Times,serif" font-size="14.00" fill="#000000">17&#45;Sep&#45;2024 10:16 PM</text>
<polygon fill="#dddddd" stroke="transparent" points="912,-444 912,-466 1062,-466 1062,-444 912,-444"/>
<polygon fill="none" stroke="#000000" points="912,-444 912,-466 1062,-466 1062,-444 912,-444"/>
<text text-anchor="start" x="965.2272" y="-450.4" font-family="Times,serif" font-size="14.00" fill="#000000">ICTime</text>
<polygon fill="#dddddd" stroke="transparent" points="1062,-444 1062,-466 1312,-466 1312,-444 1062,-444"/>
<polygon fill="none" stroke="#000000" points="1062,-444 1062,-466 1312,-466 1312,-444 1062,-444"/>
<text text-anchor="start" x="1121.2819" y="-450.4" font-family="Times,serif" font-size="14.00" fill="#000000">17&#45;Sep&#45;2024 10:16 PM</text>
<polygon fill="#ffffff" stroke="transparent" points="912,-422 912,-444 1062,-444 1062,-422 912,-422"/>
<polygon fill="none" stroke="#000000" points="912,-422 912,-444 1062,-444 1062,-422 912,-422"/>
<text text-anchor="start" x="963.6732" y="-428.4" font-family="Times,serif" font-size="14.00" fill="#000000">IMTime</text>
<polygon fill="#ffffff" stroke="transparent" points="1062,-422 1062,-444 1312,-444 1312,-422 1062,-422"/>
<polygon fill="none" stroke="#000000" points="1062,-422 1062,-444 1312,-444 1312,-422 1062,-422"/>
<text text-anchor="start" x="1121.2819" y="-428.4" font-family="Times,serif" font-size="14.00" fill="#000000">17&#45;Sep&#45;2024 10:16 PM</text>
<polygon fill="#dddddd" stroke="transparent" points="912,-400 912,-422 1062,-422 1062,-400 912,-400"/>
<polygon fill="none" stroke="#000000" points="912,-400 912,-422 1062,-422 1062,-400 912,-400"/>
<text text-anchor="start" x="970.2861" y="-406.4" font-family="Times,serif" font-size="14.00" fill="#000000">IType</text>
<polygon fill="#dddddd" stroke="transparent" points="1062,-400 1062,-422 1312,-422 1312,-400 1062,-400"/>
<polygon fill="none" stroke="#000000" points="1062,-400 1062,-422 1312,-422 1312,-400 1062,-400"/>
<text text-anchor="start" x="1183.5" y="-406.4" font-family="Times,serif" font-size="14.00" fill="#000000">1</text>
<polygon fill="#ffffff" stroke="transparent" points="912,-378 912,-400 1062,-400 1062,-378 912,-378"/>
<polygon fill="none" stroke="#000000" points="912,-378 912,-400 1062,-400 1062,-378 912,-378"/>
<text text-anchor="start" x="969.8955" y="-384.4" font-family="Times,serif" font-size="14.00" fill="#000000">IPerm</text>
<polygon fill="#ffffff" stroke="transparent" points="1062,-378 1062,-400 1312,-400 1312,-378 1062,-378"/>
<polygon fill="none" stroke="#000000" points="1062,-378 1062,-400 1312,-400 1312,-378 1062,-378"/>
<text text-anchor="start" x="1176.5" y="-384.4" font-family="Times,serif" font-size="14.00" fill="#000000">664</text>
<polygon fill="#333333" stroke="transparent" points="912,-356 912,-378 1312,-378 1312,-356 912,-356"/>
<polygon fill="none" stroke="#000000" points="912,-356 912,-378 1312,-378 1312,-356 912,-356"/>
<text text-anchor="start" x="1073.318" y="-363.4" font-family="Times,serif" font-weight="bold" font-size="14.00" fill="#000000">Direct Blocks</text>
<polygon fill="#ffffff" stroke="transparent" points="912,-334 912,-356 1062,-356 1062,-334 912,-334"/>
<polygon fill="none" stroke="#000000" points="912,-334 912,-356 1062,-356 1062,-334 912,-334"/>
<text text-anchor="start" x="962.6988" y="-340.4" font-family="Times,serif" font-size="14.00" fill="#000000">IBlock 0</text>
<polygon fill="#ffffff" stroke="transparent" points="1062,-334 1062,-356 1312,-356 1312,-334 1062,-334"/>
<polygon fill="none" stroke="#000000" points="1062,-334 1062,-356 1312,-356 1312,-334 1062,-334"/>
<text text-anchor="start" x="1183.5" y="-340.4" font-family="Times,serif" font-size="14.00" fill="#000000">2</text>
<polygon fill="#dddddd" stroke="transparent" points="912,-312 912,-334 1062,-334 1062,-312 912,-312"/>
<polygon fill="none" stroke="#000000" points="912,-312 912,-334 1062,-334 1062,-312 912,-312"/>
<text text-anchor="start" x="962.6988" y="-318.4" font-family="Times,serif" font-size="14.00" fill="#000000">IBlock 1</text>
<polygon fill="#dddddd" stroke="transparent" points="1062,-312 1062,-334 1312,-334 1312,-312 1062,-312"/>
<polygon fill="none" stroke="#000000" points="1062,-312 1062,-334 1312,-334 1312,-312 1062,-312"/>
<text text-anchor="start" x="1183.5" y="-318.4" font-family="Times,serif" font-size="14.00" fill="#000000">3</text>
<polygon fill="#ffffff" stroke="transparent" points="912,-290 912,-312 1062,-312 1062,-290 912,-290"/>
<polygon fill="none" stroke="#000000" points="912,-290 912,-312 1062,-312 1062,-290 912,-290"/>
<text text-anchor="start" x="962.6988" y="-296.4" font-family="Times,serif" font-size="14.00" fill="#000000">IBlock 2</text>
<polygon fill="#ffffff" stroke="transparent" points="1062,-290 1062,-312 1312,-312 1312,-290 1062,-290"/>
<polygon fill="none" stroke="#000000" points="1062,-290 1062,-312 1312,-312 1312,-290 1062,-290"/>
<text text-anchor="start" x="1183.5" y="-296.4" font-family="Times,serif" font-size="14.00" fill="#000000">4</text>
<polygon fill="#dddddd" stroke="transparent" points="912,-268 912,-290 1062,-290 1062,-268 912,-268"/>
<polygon fill="none" stroke="#000000" points="912,-268 912,-290 1062,-290 1062,-268 912,-268"/>
<text text-anchor="start" x="962.6988" y="-274.4" font-family="Times,serif" font-size="14.00" fill="#000000">IBlock 3</text>
<polygon fill="#dddddd" stroke="transparent" points="1062,-268 1062,-290 1312,-290 1312,-268 1062,-268"/>
<polygon fill="none" stroke="#000000" points="1062,-268 1062,-290 1312,-290 1312,-268 1062,-268"/>
<text text-anchor="start" x="1183.5" y="-274.4" font-family="Times,serif" font-size="14.00" fill="#000000">5</text>
<polygon fill="#ffffff" stroke="transparent" points="912,-246 912,-268 1062,-268 1062,-246 912,-246"/>
<polygon fill="none" stroke="#000000" points="912,-246 912,-268 1062,-268 1062,-246 912,-246"/>
<text text-anchor="start" x="962.6988" y="-252.4" font-family="Times,serif" font-size="14.00" fill="#000000">IBlock 4</text>
<polygon fill="#ffffff" stroke="transparent" points="1062,-246 1062,-268 1312,-268 1312,-246 1062,-246"/>
<polygon fill="none" stroke="#000000" points="1062,-246 1062,-268 1312,-268 1312,-246 1062,-246"/>
<text text-anchor="start" x="1183.5" y="-252.4" font-family="Times,serif" font-size="14.00" fill="#000000">6</text>
<polygon fill="#dddddd" stroke="transparent" points="912,-224 912,-246 1062,-246 1062,-224 912,-224"/>
<polygon fill="none" stroke="#000000" points="912,-224 912,-246 1062,-246 1062,-224 912,-224"/>
<text text-anchor="start" x="962.6988" y="-230.4" font-family="Times,serif" font-size="14.00" fill="#000000">IBlock 5</text>
<polygon fill="#dddddd" stroke="transparent" points="1062,-224 1062,-246 1312,-246 1312,-224 1062,-224"/>
<polygon fill="none" stroke="#000000" points="1062,-224 1062,-246 1312,-246 1312,-224 1062,-224"/>
<text text-anchor="start" x="1183.5" y="-230.4" font-family="Times,serif" font-size="14.00" fill="#000000">7</text>
<polygon fill="#ffffff" stroke="transparent" points="912,-202 912,-224 1062,-224 1062,-202 912,-202"/>
<polygon fill="none" stroke="#000000" points="912,-202 912,-224 1062,-224 1062,-202 912,-202"/>
<text text-anchor="start" x="962.6988" y="-208.4" font-family="Times,serif" font-size="14.00" fill="#000000">IBlock 6</text>
<polygon fill="#ffffff" stroke="transparent" points="1062,-202 1062,-224 1312,-224 1312,-202 1062,-202"/>
<polygon fill="none" stroke="#000000" points="1062,-202 1062,-224 1312,-224 1312,-202 1062,-202"/>
<text text-anchor="start" x="1183.5" y="-208.4" font-family="Times,serif" font-size="14.00" fill="#000000">8</text>
<polygon fill="#dddddd" stroke="transparent" points="912,-180 912,-202 1062,-202 1062,-180 912,-180"/>
<polygon fill="none" stroke="#000000" points="912,-180 912,-202 1062,-202 1062,-180 912,-180"/>
<text text-anchor="start" x="962.6988" y="-186.4" font-family="Times,serif" font-size="14.00" fill="#000000">IBlock 7</text>
<polygon fill="#dddddd" stroke="transparent" points="1062,-180 1062,-202 1312,-202 1312,-180 1062,-180"/>
<polygon fill="none" stroke="#000000" points="1062,-180 1062,-202 1312,-202 1312,-180 1062,-180"/>
<text text-anchor="start" x="1183.5" y="-186.4" font-family="Times,serif" font-size="14.00" fill="#000000">9</text>
<polygon fill="#ffffff" stroke="transparent" points="912,-158 912,-180 1062,-180 1062,-158 912,-158"/>
<polygon fill="none" stroke="#000000" points="912,-158 912,-180 1062,-180 1062,-158 912,-158"/>
<text text-anchor="start" x="962.6988" y="-164.4" font-family="Times,serif" font-size="14.00" fill="#000000">IBlock 8</text>
<polygon fill="#ffffff" stroke="transparent" points="1062,-158 1062,-180 1312,-180 1312,-158 1062,-158"/>
<polygon fill="none" stroke="#000000" points="1062,-158 1062,-180 1312,-180 1312,-158 1062,-158"/>
<text text-anchor="start" x="1180" y="-164.4" font-family="Times,serif" font-size="14.00" fill="#000000">10</text>
<polygon fill="#dddddd" stroke="transparent" points="912,-136 912,-158 1062,-158 1062,-136 912,-136"/>
<polygon fill="none" stroke="#000000" points="912,-136 912,-158 1062,-158 1062,-136 912,-136"/>
<text text-anchor="start" x="962.6988" y="-142.4" font-family="Times,serif" font-size="14.00" fill="#000000">IBlock 9</text>
<polygon fill="#dddddd" stroke="transparent" points="1062,-136 1062,-158 1312,-158 1312,-136 1062,-136"/>
<polygon fill="none" stroke="#000000" points="1062,-136 1062,-158 1312,-158 1312,-136 1062,-136"/>
<text text-anchor="start" x="1180" y="-142.4" font-family="Times,serif" font-size="14.00" fill="#000000">11</text>
<polygon fill="#ffffff" stroke="transparent" points="912,-114 912,-136 1062,-136 1062,-114 912,-114"/>
<polygon fill="none" stroke="#000000" points="912,-114 912,-136 1062,-136 1062,-114 912,-114"/>
<text text-anchor="start" x="959.1988" y="-120.4" font-family="Times,serif" font-size="14.00" fill="#000000">IBlock 10</text>
<polygon fill="#ffffff" stroke="transparent" points="1062,-114 1062,-136 1312,-136 1312,-114 1062,-114"/>
<polygon fill="none" stroke="#000000" points="1062,-114 1062,-136 1312,-136 1312,-114 1062,-114"/>
<text text-anchor="start" x="1180" y="-120.4" font-family="Times,serif" font-size="14.00" fill="#000000">12</text>
<polygon fill="#dddddd" stroke="transparent" points="912,-92 912,-114 1062,-114 1062,-92 912,-92"/>
<polygon fill="none" stroke="#000000" points="912,-92 912,-114 1062,-114 1062,-92 912,-92"/>
<text text-anchor="start" x="959.1988" y="-98.4" font-family="Times,serif" font-size="14.00" fill="#000000">IBlock 11</text>
<polygon fill="#dddddd" stroke="transparent" points="1062,-92 1062,-114 1312,-114 1312,-92 1062,-92"/>
<polygon fill="none" stroke="#000000" points="1062,-92 1062,-114 1312,-114 1312,-92 1062,-92"/>
<text text-anchor="start" x="1180" y="-98.4" font-family="Times,serif" font-size="14.00" fill="#000000">13</text>
<polygon fill="#333333" stroke="transparent" points="912,-70 912,-92 1312,-92 1312,-70 912,-70"/>
<polygon fill="none" stroke="#000000" points="912,-70 912,-92 1312,-92 1312,-70 912,-70"/>
<text text-anchor="start" x="1069.041" y="-77.4" font-family="Times,serif" font-weight="bold" font-size="14.00" fill="#000000">Indirect Blocks</text>
<polygon fill="#ffffff" stroke="transparent" points="912,-48 912,-70 1062,-70 1062,-48 912,-48"/>
<polygon fill="none" stroke="#000000" points="912,-48 912,-70 1062,-70 1062,-48 912,-48"/>
<text text-anchor="start" x="959.1988" y="-54.4" font-family="Times,serif" font-size="14.00" fill="#000000">IBlock 12</text>
<polygon fill="#ffffff" stroke="transparent" points="1062,-48 1062,-70 1312,-70 1312,-48 1062,-48"/>
<polygon fill="none" stroke="#000000" points="1062,-48 1062,-70 1312,-70 1312,-48 1062,-48"/>
<text text-anchor="start" x="1180" y="-54.4" font-family="Times,serif" font-size="14.00" fill="#000000">14</text>
<polygon fill="#dddddd" stroke="transparent" points="912,-26 912,-48 1062,-48 1062,-26 912,-26"/>
<polygon fill="none" stroke="#000000" points="912,-26 912,-48 1062,-48 1062,-26 912,-26"/>
<text text-anchor="start" x="959.1988" y="-32.4" font-family="Times,serif" font-size="14.00" fill="#000000">IBlock 13</text>
<polygon fill="#dddddd" stroke="transparent" points="1062,-26 1062,-48 1312,-48 1312,-26 1062,-26"/>
<polygon fill="none" stroke="#000000" points="1062,-26 1062,-48 1312,-48 1312,-26 1062,-26"/>
<text text-anchor="start" x="1180" y="-32.4" font-family="Times,serif" font-size="14.00" fill="#000000">16</text>
<polygon fill="#ffffff" stroke="transparent" points="912,-4 912,-26 1062,-26 1062,-4 912,-4"/>
<polygon fill="none" stroke="#000000" points="912,-4 912,-26 1062,-26 1062,-4 912,-4"/>
<text text-anchor="start" x="959.1988" y="-10.4" font-family="Times,serif" font-size="14.00" fill="#000000">IBlock 14</text>
<polygon fill="#ffffff" stroke="transparent" points="1062,-4 1062,-26 1312,-26 1312,-4 1062,-4"/>
<polygon fill="none" stroke="#000000" points="1062,-4 1062,-26 1312,-26 1312,-4 1062,-4"/>
<text text-anchor="start" x="1181.1697" y="-10.4" font-family="Times,serif" font-size="14.00" fill="#000000">&#45;1</text>
</g>
<!-- Inodo_1&#45;&gt;Inodo_2 -->
<g id="edge2" class="edge">
<title>Inodo_1&#45;&gt;Inodo_2</title>
<path fill="none" stroke="#000000" d="M868.1396,-290C876.5404,-290 884.9743,-290 893.3945,-290"/>
<polygon fill="#000000" stroke="#000000" points="893.6554,-293.5001 903.6553,-290 893.6553,-286.5001 893.6554,-293.5001"/>
</g>
</g>
</svg>
