<?xml version="1.0" encoding="UTF-8" standalone="no"?>
<!DOCTYPE svg PUBLIC "-//W3C//DTD SVG 1.1//EN"
 "http://www.w3.org/Graphics/SVG/1.1/DTD/svg11.dtd">
<!-- Generated by graphviz version 2.40.1 (20161225.0304)
 -->
<!-- Title: G Pages: 1 -->
<svg width="876pt" height="1186pt"
 viewBox="0.00 0.00 876.00 1186.00" xmlns="http://www.w3.org/2000/svg" xmlns:xlink="http://www.w3.org/1999/xlink">
<g id="graph0" class="graph" transform="scale(1 1) rotate(0) translate(4 1182)">
<title>G</title>
<polygon fill="#ffffff" stroke="transparent" points="-4,4 -4,-1182 872,-1182 872,4 -4,4"/>
<!-- Inodo_0 -->
<g id="node1" class="node">
<title>Inodo_0</title>
<polygon fill="#333333" stroke="transparent" points="8,-554 8,-576 408,-576 408,-554 8,-554"/>
<polygon fill="none" stroke="#000000" points="8,-554 8,-576 408,-576 408,-554 8,-554"/>
<text text-anchor="start" x="184.6697" y="-561.4" font-family="Times,serif" font-weight="bold" font-size="14.00" fill="#000000">Inodo_0</text>
<polygon fill="#dddddd" stroke="transparent" points="8,-532 8,-554 158,-554 158,-532 8,-532"/>
<polygon fill="none" stroke="#000000" points="8,-532 8,-554 158,-554 158,-532 8,-532"/>
<text text-anchor="start" x="71.3394" y="-538.4" font-family="Times,serif" font-size="14.00" fill="#000000">IuId</text>
<polygon fill="#dddddd" stroke="transparent" points="158,-532 158,-554 408,-554 408,-532 158,-532"/>
<polygon fill="none" stroke="#000000" points="158,-532 158,-554 408,-554 408,-532 158,-532"/>
<text text-anchor="start" x="279.5" y="-538.4" font-family="Times,serif" font-size="14.00" fill="#000000">1</text>
<polygon fill="#ffffff" stroke="transparent" points="8,-510 8,-532 158,-532 158,-510 8,-510"/>
<polygon fill="none" stroke="#000000" points="8,-510 8,-532 158,-532 158,-510 8,-510"/>
<text text-anchor="start" x="70.1711" y="-516.4" font-family="Times,serif" font-size="14.00" fill="#000000">IGid</text>
<polygon fill="#ffffff" stroke="transparent" points="158,-510 158,-532 408,-532 408,-510 158,-510"/>
<polygon fill="none" stroke="#000000" points="158,-510 158,-532 408,-532 408,-510 158,-510"/>
<text text-anchor="start" x="279.5" y="-516.4" font-family="Times,serif" font-size="14.00" fill="#000000">1</text>
<polygon fill="#dddddd" stroke="transparent" points="8,-488 8,-510 158,-510 158,-488 8,-488"/>
<polygon fill="none" stroke="#000000" points="8,-488 8,-510 158,-510 158,-488 8,-488"/>
<text text-anchor="start" x="68.6185" y="-494.4" font-family="Times,serif" font-size="14.00" fill="#000000">ISize</text>
<polygon fill="#dddddd" stroke="transparent" points="158,-488 158,-510 408,-510 408,-488 158,-488"/>
<polygon fill="none" stroke="#000000" points="158,-488 158,-510 408,-510 408,-488 158,-488"/>
<text text-anchor="start" x="279.5" y="-494.4" font-family="Times,serif" font-size="14.00" fill="#000000">0</text>
<polygon fill="#ffffff" stroke="transparent" points="8,-466 8,-488 158,-488 158,-466 8,-466"/>
<polygon fill="none" stroke="#000000" points="8,-466 8,-488 158,-488 158,-466 8,-466"/>
<text text-anchor="start" x="63.1732" y="-472.4" font-family="Times,serif" font-size="14.00" fill="#000000">IAtime</text>
<polygon fill="#ffffff" stroke="transparent" points="158,-466 158,-488 408,-488 408,-466 158,-466"/>
<polygon fill="none" stroke="#000000" points="158,-466 158,-488 408,-488 408,-466 158,-466"/>
<text text-anchor="start" x="215.7272" y="-472.4" font-family="Times,serif" font-size="14.00" fill="#000000">31&#45;Aug&#45;2024 09:01 PM</text>
<polygon fill="#dddddd" stroke="transparent" points="8,-444 8,-466 158,-466 158,-444 8,-444"/>
<polygon fill="none" stroke="#000000" points="8,-444 8,-466 158,-466 158,-444 8,-444"/>
<text text-anchor="start" x="61.2272" y="-450.4" font-family="Times,serif" font-size="14.00" fill="#000000">ICTime</text>
<polygon fill="#dddddd" stroke="transparent" points="158,-444 158,-466 408,-466 408,-444 158,-444"/>
<polygon fill="none" stroke="#000000" points="158,-444 158,-466 408,-466 408,-444 158,-444"/>
<text text-anchor="start" x="215.7272" y="-450.4" font-family="Times,serif" font-size="14.00" fill="#000000">31&#45;Aug&#45;2024 09:01 PM</text>
<polygon fill="#ffffff" stroke="transparent" points="8,-422 8,-444 158,-444 158,-422 8,-422"/>
<polygon fill="none" stroke="#000000" points="8,-422 8,-444 158,-444 158,-422 8,-422"/>
<text text-anchor="start" x="59.6732" y="-428.4" font-family="Times,serif" font-size="14.00" fill="#000000">IMTime</text>
<polygon fill="#ffffff" stroke="transparent" points="158,-422 158,-444 408,-444 408,-422 158,-422"/>
<polygon fill="none" stroke="#000000" points="158,-422 158,-444 408,-444 408,-422 158,-422"/>
<text text-anchor="start" x="215.7272" y="-428.4" font-family="Times,serif" font-size="14.00" fill="#000000">31&#45;Aug&#45;2024 09:01 PM</text>
<polygon fill="#dddddd" stroke="transparent" points="8,-400 8,-422 158,-422 158,-400 8,-400"/>
<polygon fill="none" stroke="#000000" points="8,-400 8,-422 158,-422 158,-400 8,-400"/>
<text text-anchor="start" x="66.2861" y="-406.4" font-family="Times,serif" font-size="14.00" fill="#000000">IType</text>
<polygon fill="#dddddd" stroke="transparent" points="158,-400 158,-422 408,-422 408,-400 158,-400"/>
<polygon fill="none" stroke="#000000" points="158,-400 158,-422 408,-422 408,-400 158,-400"/>
<text text-anchor="start" x="279.5" y="-406.4" font-family="Times,serif" font-size="14.00" fill="#000000">0</text>
<polygon fill="#ffffff" stroke="transparent" points="8,-378 8,-400 158,-400 158,-378 8,-378"/>
<polygon fill="none" stroke="#000000" points="8,-378 8,-400 158,-400 158,-378 8,-378"/>
<text text-anchor="start" x="65.8955" y="-384.4" font-family="Times,serif" font-size="14.00" fill="#000000">IPerm</text>
<polygon fill="#ffffff" stroke="transparent" points="158,-378 158,-400 408,-400 408,-378 158,-378"/>
<polygon fill="none" stroke="#000000" points="158,-378 158,-400 408,-400 408,-378 158,-378"/>
<text text-anchor="start" x="272.5" y="-384.4" font-family="Times,serif" font-size="14.00" fill="#000000">777</text>
<polygon fill="#333333" stroke="transparent" points="8,-356 8,-378 408,-378 408,-356 8,-356"/>
<polygon fill="none" stroke="#000000" points="8,-356 8,-378 408,-378 408,-356 8,-356"/>
<text text-anchor="start" x="169.318" y="-363.4" font-family="Times,serif" font-weight="bold" font-size="14.00" fill="#000000">Direct Blocks</text>
<polygon fill="#ffffff" stroke="transparent" points="8,-334 8,-356 158,-356 158,-334 8,-334"/>
<polygon fill="none" stroke="#000000" points="8,-334 8,-356 158,-356 158,-334 8,-334"/>
<text text-anchor="start" x="58.6988" y="-340.4" font-family="Times,serif" font-size="14.00" fill="#000000">IBlock 0</text>
<polygon fill="#ffffff" stroke="transparent" points="158,-334 158,-356 408,-356 408,-334 158,-334"/>
<polygon fill="none" stroke="#000000" points="158,-334 158,-356 408,-356 408,-334 158,-334"/>
<text text-anchor="start" x="279.5" y="-340.4" font-family="Times,serif" font-size="14.00" fill="#000000">0</text>
<polygon fill="#dddddd" stroke="transparent" points="8,-312 8,-334 158,-334 158,-312 8,-312"/>
<polygon fill="none" stroke="#000000" points="8,-312 8,-334 158,-334 158,-312 8,-312"/>
<text text-anchor="start" x="58.6988" y="-318.4" font-family="Times,serif" font-size="14.00" fill="#000000">IBlock 1</text>
<polygon fill="#dddddd" stroke="transparent" points="158,-312 158,-334 408,-334 408,-312 158,-312"/>
<polygon fill="none" stroke="#000000" points="158,-312 158,-334 408,-334 408,-312 158,-312"/>
<text text-anchor="start" x="277.1697" y="-318.4" font-family="Times,serif" font-size="14.00" fill="#000000">&#45;1</text>
<polygon fill="#ffffff" stroke="transparent" points="8,-290 8,-312 158,-312 158,-290 8,-290"/>
<polygon fill="none" stroke="#000000" points="8,-290 8,-312 158,-312 158,-290 8,-290"/>
<text text-anchor="start" x="58.6988" y="-296.4" font-family="Times,serif" font-size="14.00" fill="#000000">IBlock 2</text>
<polygon fill="#ffffff" stroke="transparent" points="158,-290 158,-312 408,-312 408,-290 158,-290"/>
<polygon fill="none" stroke="#000000" points="158,-290 158,-312 408,-312 408,-290 158,-290"/>
<text text-anchor="start" x="277.1697" y="-296.4" font-family="Times,serif" font-size="14.00" fill="#000000">&#45;1</text>
<polygon fill="#dddddd" stroke="transparent" points="8,-268 8,-290 158,-290 158,-268 8,-268"/>
<polygon fill="none" stroke="#000000" points="8,-268 8,-290 158,-290 158,-268 8,-268"/>
<text text-anchor="start" x="58.6988" y="-274.4" font-family="Times,serif" font-size="14.00" fill="#000000">IBlock 3</text>
<polygon fill="#dddddd" stroke="transparent" points="158,-268 158,-290 408,-290 408,-268 158,-268"/>
<polygon fill="none" stroke="#000000" points="158,-268 158,-290 408,-290 408,-268 158,-268"/>
<text text-anchor="start" x="277.1697" y="-274.4" font-family="Times,serif" font-size="14.00" fill="#000000">&#45;1</text>
<polygon fill="#ffffff" stroke="transparent" points="8,-246 8,-268 158,-268 158,-246 8,-246"/>
<polygon fill="none" stroke="#000000" points="8,-246 8,-268 158,-268 158,-246 8,-246"/>
<text text-anchor="start" x="58.6988" y="-252.4" font-family="Times,serif" font-size="14.00" fill="#000000">IBlock 4</text>
<polygon fill="#ffffff" stroke="transparent" points="158,-246 158,-268 408,-268 408,-246 158,-246"/>
<polygon fill="none" stroke="#000000" points="158,-246 158,-268 408,-268 408,-246 158,-246"/>
<text text-anchor="start" x="277.1697" y="-252.4" font-family="Times,serif" font-size="14.00" fill="#000000">&#45;1</text>
<polygon fill="#dddddd" stroke="transparent" points="8,-224 8,-246 158,-246 158,-224 8,-224"/>
<polygon fill="none" stroke="#000000" points="8,-224 8,-246 158,-246 158,-224 8,-224"/>
<text text-anchor="start" x="58.6988" y="-230.4" font-family="Times,serif" font-size="14.00" fill="#000000">IBlock 5</text>
<polygon fill="#dddddd" stroke="transparent" points="158,-224 158,-246 408,-246 408,-224 158,-224"/>
<polygon fill="none" stroke="#000000" points="158,-224 158,-246 408,-246 408,-224 158,-224"/>
<text text-anchor="start" x="277.1697" y="-230.4" font-family="Times,serif" font-size="14.00" fill="#000000">&#45;1</text>
<polygon fill="#ffffff" stroke="transparent" points="8,-202 8,-224 158,-224 158,-202 8,-202"/>
<polygon fill="none" stroke="#000000" points="8,-202 8,-224 158,-224 158,-202 8,-202"/>
<text text-anchor="start" x="58.6988" y="-208.4" font-family="Times,serif" font-size="14.00" fill="#000000">IBlock 6</text>
<polygon fill="#ffffff" stroke="transparent" points="158,-202 158,-224 408,-224 408,-202 158,-202"/>
<polygon fill="none" stroke="#000000" points="158,-202 158,-224 408,-224 408,-202 158,-202"/>
<text text-anchor="start" x="277.1697" y="-208.4" font-family="Times,serif" font-size="14.00" fill="#000000">&#45;1</text>
<polygon fill="#dddddd" stroke="transparent" points="8,-180 8,-202 158,-202 158,-180 8,-180"/>
<polygon fill="none" stroke="#000000" points="8,-180 8,-202 158,-202 158,-180 8,-180"/>
<text text-anchor="start" x="58.6988" y="-186.4" font-family="Times,serif" font-size="14.00" fill="#000000">IBlock 7</text>
<polygon fill="#dddddd" stroke="transparent" points="158,-180 158,-202 408,-202 408,-180 158,-180"/>
<polygon fill="none" stroke="#000000" points="158,-180 158,-202 408,-202 408,-180 158,-180"/>
<text text-anchor="start" x="277.1697" y="-186.4" font-family="Times,serif" font-size="14.00" fill="#000000">&#45;1</text>
<polygon fill="#ffffff" stroke="transparent" points="8,-158 8,-180 158,-180 158,-158 8,-158"/>
<polygon fill="none" stroke="#000000" points="8,-158 8,-180 158,-180 158,-158 8,-158"/>
<text text-anchor="start" x="58.6988" y="-164.4" font-family="Times,serif" font-size="14.00" fill="#000000">IBlock 8</text>
<polygon fill="#ffffff" stroke="transparent" points="158,-158 158,-180 408,-180 408,-158 158,-158"/>
<polygon fill="none" stroke="#000000" points="158,-158 158,-180 408,-180 408,-158 158,-158"/>
<text text-anchor="start" x="277.1697" y="-164.4" font-family="Times,serif" font-size="14.00" fill="#000000">&#45;1</text>
<polygon fill="#dddddd" stroke="transparent" points="8,-136 8,-158 158,-158 158,-136 8,-136"/>
<polygon fill="none" stroke="#000000" points="8,-136 8,-158 158,-158 158,-136 8,-136"/>
<text text-anchor="start" x="58.6988" y="-142.4" font-family="Times,serif" font-size="14.00" fill="#000000">IBlock 9</text>
<polygon fill="#dddddd" stroke="transparent" points="158,-136 158,-158 408,-158 408,-136 158,-136"/>
<polygon fill="none" stroke="#000000" points="158,-136 158,-158 408,-158 408,-136 158,-136"/>
<text text-anchor="start" x="277.1697" y="-142.4" font-family="Times,serif" font-size="14.00" fill="#000000">&#45;1</text>
<polygon fill="#ffffff" stroke="transparent" points="8,-114 8,-136 158,-136 158,-114 8,-114"/>
<polygon fill="none" stroke="#000000" points="8,-114 8,-136 158,-136 158,-114 8,-114"/>
<text text-anchor="start" x="55.1988" y="-120.4" font-family="Times,serif" font-size="14.00" fill="#000000">IBlock 10</text>
<polygon fill="#ffffff" stroke="transparent" points="158,-114 158,-136 408,-136 408,-114 158,-114"/>
<polygon fill="none" stroke="#000000" points="158,-114 158,-136 408,-136 408,-114 158,-114"/>
<text text-anchor="start" x="277.1697" y="-120.4" font-family="Times,serif" font-size="14.00" fill="#000000">&#45;1</text>
<polygon fill="#dddddd" stroke="transparent" points="8,-92 8,-114 158,-114 158,-92 8,-92"/>
<polygon fill="none" stroke="#000000" points="8,-92 8,-114 158,-114 158,-92 8,-92"/>
<text text-anchor="start" x="55.1988" y="-98.4" font-family="Times,serif" font-size="14.00" fill="#000000">IBlock 11</text>
<polygon fill="#dddddd" stroke="transparent" points="158,-92 158,-114 408,-114 408,-92 158,-92"/>
<polygon fill="none" stroke="#000000" points="158,-92 158,-114 408,-114 408,-92 158,-92"/>
<text text-anchor="start" x="277.1697" y="-98.4" font-family="Times,serif" font-size="14.00" fill="#000000">&#45;1</text>
<polygon fill="#333333" stroke="transparent" points="8,-70 8,-92 408,-92 408,-70 8,-70"/>
<polygon fill="none" stroke="#000000" points="8,-70 8,-92 408,-92 408,-70 8,-70"/>
<text text-anchor="start" x="165.041" y="-77.4" font-family="Times,serif" font-weight="bold" font-size="14.00" fill="#000000">Indirect Blocks</text>
<polygon fill="#ffffff" stroke="transparent" points="8,-48 8,-70 158,-70 158,-48 8,-48"/>
<polygon fill="none" stroke="#000000" points="8,-48 8,-70 158,-70 158,-48 8,-48"/>
<text text-anchor="start" x="55.1988" y="-54.4" font-family="Times,serif" font-size="14.00" fill="#000000">IBlock 12</text>
<polygon fill="#ffffff" stroke="transparent" points="158,-48 158,-70 408,-70 408,-48 158,-48"/>
<polygon fill="none" stroke="#000000" points="158,-48 158,-70 408,-70 408,-48 158,-48"/>
<text text-anchor="start" x="277.1697" y="-54.4" font-family="Times,serif" font-size="14.00" fill="#000000">&#45;1</text>
<polygon fill="#dddddd" stroke="transparent" points="8,-26 8,-48 158,-48 158,-26 8,-26"/>
<polygon fill="none" stroke="#000000" points="8,-26 8,-48 158,-48 158,-26 8,-26"/>
<text text-anchor="start" x="55.1988" y="-32.4" font-family="Times,serif" font-size="14.00" fill="#000000">IBlock 13</text>
<polygon fill="#dddddd" stroke="transparent" points="158,-26 158,-48 408,-48 408,-26 158,-26"/>
<polygon fill="none" stroke="#000000" points="158,-26 158,-48 408,-48 408,-26 158,-26"/>
<text text-anchor="start" x="277.1697" y="-32.4" font-family="Times,serif" font-size="14.00" fill="#000000">&#45;1</text>
<polygon fill="#ffffff" stroke="transparent" points="8,-4 8,-26 158,-26 158,-4 8,-4"/>
<polygon fill="none" stroke="#000000" points="8,-4 8,-26 158,-26 158,-4 8,-4"/>
<text text-anchor="start" x="55.1988" y="-10.4" font-family="Times,serif" font-size="14.00" fill="#000000">IBlock 14</text>
<polygon fill="#ffffff" stroke="transparent" points="158,-4 158,-26 408,-26 408,-4 158,-4"/>
<polygon fill="none" stroke="#000000" points="158,-4 158,-26 408,-26 408,-4 158,-4"/>
<text text-anchor="start" x="277.1697" y="-10.4" font-family="Times,serif" font-size="14.00" fill="#000000">&#45;1</text>
</g>
<!-- Bloque_0 -->
<g id="node2" class="node">
<title>Bloque_0</title>
<polygon fill="#333333" stroke="transparent" points="510,-334 510,-356 810,-356 810,-334 510,-334"/>
<polygon fill="none" stroke="#000000" points="510,-334 510,-356 810,-356 810,-334 510,-334"/>
<text text-anchor="start" x="632.7791" y="-341.4" font-family="Times,serif" font-weight="bold" font-size="14.00" fill="#000000">Bloque_0</text>
<polygon fill="#dddddd" stroke="transparent" points="510,-312 510,-334 660,-334 660,-312 510,-312"/>
<polygon fill="none" stroke="#000000" points="510,-312 510,-334 660,-334 660,-312 510,-312"/>
<text text-anchor="start" x="563.6185" y="-318.4" font-family="Times,serif" font-size="14.00" fill="#000000">BName</text>
<polygon fill="#dddddd" stroke="transparent" points="660,-312 660,-334 810,-334 810,-312 660,-312"/>
<polygon fill="none" stroke="#000000" points="660,-312 660,-334 810,-334 810,-312 660,-312"/>
<text text-anchor="start" x="712.8408" y="-318.4" font-family="Times,serif" font-size="14.00" fill="#000000">BINode</text>
<polygon fill="#dddddd" stroke="transparent" points="510,-290 510,-312 660,-312 660,-290 510,-290"/>
<polygon fill="none" stroke="#000000" points="510,-290 510,-312 660,-312 660,-290 510,-290"/>
<text text-anchor="start" x="583.25" y="-296.4" font-family="Times,serif" font-size="14.00" fill="#000000">.</text>
<polygon fill="#dddddd" stroke="transparent" points="660,-290 660,-312 810,-312 810,-290 660,-290"/>
<polygon fill="none" stroke="#000000" points="660,-290 660,-312 810,-312 810,-290 660,-290"/>
<text text-anchor="start" x="731.5" y="-296.4" font-family="Times,serif" font-size="14.00" fill="#000000">0</text>
<polygon fill="#dddddd" stroke="transparent" points="510,-268 510,-290 660,-290 660,-268 510,-268"/>
<polygon fill="none" stroke="#000000" points="510,-268 510,-290 660,-290 660,-268 510,-268"/>
<text text-anchor="start" x="581.5" y="-274.4" font-family="Times,serif" font-size="14.00" fill="#000000">..</text>
<polygon fill="#dddddd" stroke="transparent" points="660,-268 660,-290 810,-290 810,-268 660,-268"/>
<polygon fill="none" stroke="#000000" points="660,-268 660,-290 810,-290 810,-268 660,-268"/>
<text text-anchor="start" x="731.5" y="-274.4" font-family="Times,serif" font-size="14.00" fill="#000000">0</text>
<polygon fill="#dddddd" stroke="transparent" points="510,-246 510,-268 660,-268 660,-246 510,-246"/>
<polygon fill="none" stroke="#000000" points="510,-246 510,-268 660,-268 660,-246 510,-246"/>
<text text-anchor="start" x="561.4772" y="-252.4" font-family="Times,serif" font-size="14.00" fill="#000000">users.txt</text>
<polygon fill="#dddddd" stroke="transparent" points="660,-246 660,-268 810,-268 810,-246 660,-246"/>
<polygon fill="none" stroke="#000000" points="660,-246 660,-268 810,-268 810,-246 660,-246"/>
<text text-anchor="start" x="731.5" y="-252.4" font-family="Times,serif" font-size="14.00" fill="#000000">1</text>
<polygon fill="#dddddd" stroke="transparent" points="510,-224 510,-246 660,-246 660,-224 510,-224"/>
<polygon fill="none" stroke="#000000" points="510,-224 510,-246 660,-246 660,-224 510,-224"/>
<text text-anchor="start" x="582.6697" y="-230.4" font-family="Times,serif" font-size="14.00" fill="#000000">&#45;</text>
<polygon fill="#dddddd" stroke="transparent" points="660,-224 660,-246 810,-246 810,-224 660,-224"/>
<polygon fill="none" stroke="#000000" points="660,-224 660,-246 810,-246 810,-224 660,-224"/>
<text text-anchor="start" x="729.1697" y="-230.4" font-family="Times,serif" font-size="14.00" fill="#000000">&#45;1</text>
</g>
<!-- Inodo_0&#45;&gt;Bloque_0 -->
<g id="edge1" class="edge">
<title>Inodo_0&#45;&gt;Bloque_0</title>
<path fill="none" stroke="#000000" d="M416.1396,-290C441.4926,-290 467.1473,-290 491.8167,-290"/>
<polygon fill="#000000" stroke="#000000" points="491.9539,-293.5001 501.9539,-290 491.9538,-286.5001 491.9539,-293.5001"/>
</g>
<!-- Inodo_1 -->
<g id="node3" class="node">
<title>Inodo_1</title>
<polygon fill="#333333" stroke="transparent" points="8,-1152 8,-1174 408,-1174 408,-1152 8,-1152"/>
<polygon fill="none" stroke="#000000" points="8,-1152 8,-1174 408,-1174 408,-1152 8,-1152"/>
<text text-anchor="start" x="184.6697" y="-1159.4" font-family="Times,serif" font-weight="bold" font-size="14.00" fill="#000000">Inodo_1</text>
<polygon fill="#dddddd" stroke="transparent" points="8,-1130 8,-1152 158,-1152 158,-1130 8,-1130"/>
<polygon fill="none" stroke="#000000" points="8,-1130 8,-1152 158,-1152 158,-1130 8,-1130"/>
<text text-anchor="start" x="71.3394" y="-1136.4" font-family="Times,serif" font-size="14.00" fill="#000000">IuId</text>
<polygon fill="#dddddd" stroke="transparent" points="158,-1130 158,-1152 408,-1152 408,-1130 158,-1130"/>
<polygon fill="none" stroke="#000000" points="158,-1130 158,-1152 408,-1152 408,-1130 158,-1130"/>
<text text-anchor="start" x="279.5" y="-1136.4" font-family="Times,serif" font-size="14.00" fill="#000000">1</text>
<polygon fill="#ffffff" stroke="transparent" points="8,-1108 8,-1130 158,-1130 158,-1108 8,-1108"/>
<polygon fill="none" stroke="#000000" points="8,-1108 8,-1130 158,-1130 158,-1108 8,-1108"/>
<text text-anchor="start" x="70.1711" y="-1114.4" font-family="Times,serif" font-size="14.00" fill="#000000">IGid</text>
<polygon fill="#ffffff" stroke="transparent" points="158,-1108 158,-1130 408,-1130 408,-1108 158,-1108"/>
<polygon fill="none" stroke="#000000" points="158,-1108 158,-1130 408,-1130 408,-1108 158,-1108"/>
<text text-anchor="start" x="279.5" y="-1114.4" font-family="Times,serif" font-size="14.00" fill="#000000">1</text>
<polygon fill="#dddddd" stroke="transparent" points="8,-1086 8,-1108 158,-1108 158,-1086 8,-1086"/>
<polygon fill="none" stroke="#000000" points="8,-1086 8,-1108 158,-1108 158,-1086 8,-1086"/>
<text text-anchor="start" x="68.6185" y="-1092.4" font-family="Times,serif" font-size="14.00" fill="#000000">ISize</text>
<polygon fill="#dddddd" stroke="transparent" points="158,-1086 158,-1108 408,-1108 408,-1086 158,-1086"/>
<polygon fill="none" stroke="#000000" points="158,-1086 158,-1108 408,-1108 408,-1086 158,-1086"/>
<text text-anchor="start" x="276" y="-1092.4" font-family="Times,serif" font-size="14.00" fill="#000000">27</text>
<polygon fill="#ffffff" stroke="transparent" points="8,-1064 8,-1086 158,-1086 158,-1064 8,-1064"/>
<polygon fill="none" stroke="#000000" points="8,-1064 8,-1086 158,-1086 158,-1064 8,-1064"/>
<text text-anchor="start" x="63.1732" y="-1070.4" font-family="Times,serif" font-size="14.00" fill="#000000">IAtime</text>
<polygon fill="#ffffff" stroke="transparent" points="158,-1064 158,-1086 408,-1086 408,-1064 158,-1064"/>
<polygon fill="none" stroke="#000000" points="158,-1064 158,-1086 408,-1086 408,-1064 158,-1064"/>
<text text-anchor="start" x="215.7272" y="-1070.4" font-family="Times,serif" font-size="14.00" fill="#000000">31&#45;Aug&#45;2024 09:01 PM</text>
<polygon fill="#dddddd" stroke="transparent" points="8,-1042 8,-1064 158,-1064 158,-1042 8,-1042"/>
<polygon fill="none" stroke="#000000" points="8,-1042 8,-1064 158,-1064 158,-1042 8,-1042"/>
<text text-anchor="start" x="61.2272" y="-1048.4" font-family="Times,serif" font-size="14.00" fill="#000000">ICTime</text>
<polygon fill="#dddddd" stroke="transparent" points="158,-1042 158,-1064 408,-1064 408,-1042 158,-1042"/>
<polygon fill="none" stroke="#000000" points="158,-1042 158,-1064 408,-1064 408,-1042 158,-1042"/>
<text text-anchor="start" x="215.7272" y="-1048.4" font-family="Times,serif" font-size="14.00" fill="#000000">31&#45;Aug&#45;2024 09:01 PM</text>
<polygon fill="#ffffff" stroke="transparent" points="8,-1020 8,-1042 158,-1042 158,-1020 8,-1020"/>
<polygon fill="none" stroke="#000000" points="8,-1020 8,-1042 158,-1042 158,-1020 8,-1020"/>
<text text-anchor="start" x="59.6732" y="-1026.4" font-family="Times,serif" font-size="14.00" fill="#000000">IMTime</text>
<polygon fill="#ffffff" stroke="transparent" points="158,-1020 158,-1042 408,-1042 408,-1020 158,-1020"/>
<polygon fill="none" stroke="#000000" points="158,-1020 158,-1042 408,-1042 408,-1020 158,-1020"/>
<text text-anchor="start" x="215.7272" y="-1026.4" font-family="Times,serif" font-size="14.00" fill="#000000">31&#45;Aug&#45;2024 09:01 PM</text>
<polygon fill="#dddddd" stroke="transparent" points="8,-998 8,-1020 158,-1020 158,-998 8,-998"/>
<polygon fill="none" stroke="#000000" points="8,-998 8,-1020 158,-1020 158,-998 8,-998"/>
<text text-anchor="start" x="66.2861" y="-1004.4" font-family="Times,serif" font-size="14.00" fill="#000000">IType</text>
<polygon fill="#dddddd" stroke="transparent" points="158,-998 158,-1020 408,-1020 408,-998 158,-998"/>
<polygon fill="none" stroke="#000000" points="158,-998 158,-1020 408,-1020 408,-998 158,-998"/>
<text text-anchor="start" x="279.5" y="-1004.4" font-family="Times,serif" font-size="14.00" fill="#000000">1</text>
<polygon fill="#ffffff" stroke="transparent" points="8,-976 8,-998 158,-998 158,-976 8,-976"/>
<polygon fill="none" stroke="#000000" points="8,-976 8,-998 158,-998 158,-976 8,-976"/>
<text text-anchor="start" x="65.8955" y="-982.4" font-family="Times,serif" font-size="14.00" fill="#000000">IPerm</text>
<polygon fill="#ffffff" stroke="transparent" points="158,-976 158,-998 408,-998 408,-976 158,-976"/>
<polygon fill="none" stroke="#000000" points="158,-976 158,-998 408,-998 408,-976 158,-976"/>
<text text-anchor="start" x="272.5" y="-982.4" font-family="Times,serif" font-size="14.00" fill="#000000">777</text>
<polygon fill="#333333" stroke="transparent" points="8,-954 8,-976 408,-976 408,-954 8,-954"/>
<polygon fill="none" stroke="#000000" points="8,-954 8,-976 408,-976 408,-954 8,-954"/>
<text text-anchor="start" x="169.318" y="-961.4" font-family="Times,serif" font-weight="bold" font-size="14.00" fill="#000000">Direct Blocks</text>
<polygon fill="#ffffff" stroke="transparent" points="8,-932 8,-954 158,-954 158,-932 8,-932"/>
<polygon fill="none" stroke="#000000" points="8,-932 8,-954 158,-954 158,-932 8,-932"/>
<text text-anchor="start" x="58.6988" y="-938.4" font-family="Times,serif" font-size="14.00" fill="#000000">IBlock 0</text>
<polygon fill="#ffffff" stroke="transparent" points="158,-932 158,-954 408,-954 408,-932 158,-932"/>
<polygon fill="none" stroke="#000000" points="158,-932 158,-954 408,-954 408,-932 158,-932"/>
<text text-anchor="start" x="279.5" y="-938.4" font-family="Times,serif" font-size="14.00" fill="#000000">1</text>
<polygon fill="#dddddd" stroke="transparent" points="8,-910 8,-932 158,-932 158,-910 8,-910"/>
<polygon fill="none" stroke="#000000" points="8,-910 8,-932 158,-932 158,-910 8,-910"/>
<text text-anchor="start" x="58.6988" y="-916.4" font-family="Times,serif" font-size="14.00" fill="#000000">IBlock 1</text>
<polygon fill="#dddddd" stroke="transparent" points="158,-910 158,-932 408,-932 408,-910 158,-910"/>
<polygon fill="none" stroke="#000000" points="158,-910 158,-932 408,-932 408,-910 158,-910"/>
<text text-anchor="start" x="279.5" y="-916.4" font-family="Times,serif" font-size="14.00" fill="#000000">2</text>
<polygon fill="#ffffff" stroke="transparent" points="8,-888 8,-910 158,-910 158,-888 8,-888"/>
<polygon fill="none" stroke="#000000" points="8,-888 8,-910 158,-910 158,-888 8,-888"/>
<text text-anchor="start" x="58.6988" y="-894.4" font-family="Times,serif" font-size="14.00" fill="#000000">IBlock 2</text>
<polygon fill="#ffffff" stroke="transparent" points="158,-888 158,-910 408,-910 408,-888 158,-888"/>
<polygon fill="none" stroke="#000000" points="158,-888 158,-910 408,-910 408,-888 158,-888"/>
<text text-anchor="start" x="277.1697" y="-894.4" font-family="Times,serif" font-size="14.00" fill="#000000">&#45;1</text>
<polygon fill="#dddddd" stroke="transparent" points="8,-866 8,-888 158,-888 158,-866 8,-866"/>
<polygon fill="none" stroke="#000000" points="8,-866 8,-888 158,-888 158,-866 8,-866"/>
<text text-anchor="start" x="58.6988" y="-872.4" font-family="Times,serif" font-size="14.00" fill="#000000">IBlock 3</text>
<polygon fill="#dddddd" stroke="transparent" points="158,-866 158,-888 408,-888 408,-866 158,-866"/>
<polygon fill="none" stroke="#000000" points="158,-866 158,-888 408,-888 408,-866 158,-866"/>
<text text-anchor="start" x="277.1697" y="-872.4" font-family="Times,serif" font-size="14.00" fill="#000000">&#45;1</text>
<polygon fill="#ffffff" stroke="transparent" points="8,-844 8,-866 158,-866 158,-844 8,-844"/>
<polygon fill="none" stroke="#000000" points="8,-844 8,-866 158,-866 158,-844 8,-844"/>
<text text-anchor="start" x="58.6988" y="-850.4" font-family="Times,serif" font-size="14.00" fill="#000000">IBlock 4</text>
<polygon fill="#ffffff" stroke="transparent" points="158,-844 158,-866 408,-866 408,-844 158,-844"/>
<polygon fill="none" stroke="#000000" points="158,-844 158,-866 408,-866 408,-844 158,-844"/>
<text text-anchor="start" x="277.1697" y="-850.4" font-family="Times,serif" font-size="14.00" fill="#000000">&#45;1</text>
<polygon fill="#dddddd" stroke="transparent" points="8,-822 8,-844 158,-844 158,-822 8,-822"/>
<polygon fill="none" stroke="#000000" points="8,-822 8,-844 158,-844 158,-822 8,-822"/>
<text text-anchor="start" x="58.6988" y="-828.4" font-family="Times,serif" font-size="14.00" fill="#000000">IBlock 5</text>
<polygon fill="#dddddd" stroke="transparent" points="158,-822 158,-844 408,-844 408,-822 158,-822"/>
<polygon fill="none" stroke="#000000" points="158,-822 158,-844 408,-844 408,-822 158,-822"/>
<text text-anchor="start" x="277.1697" y="-828.4" font-family="Times,serif" font-size="14.00" fill="#000000">&#45;1</text>
<polygon fill="#ffffff" stroke="transparent" points="8,-800 8,-822 158,-822 158,-800 8,-800"/>
<polygon fill="none" stroke="#000000" points="8,-800 8,-822 158,-822 158,-800 8,-800"/>
<text text-anchor="start" x="58.6988" y="-806.4" font-family="Times,serif" font-size="14.00" fill="#000000">IBlock 6</text>
<polygon fill="#ffffff" stroke="transparent" points="158,-800 158,-822 408,-822 408,-800 158,-800"/>
<polygon fill="none" stroke="#000000" points="158,-800 158,-822 408,-822 408,-800 158,-800"/>
<text text-anchor="start" x="277.1697" y="-806.4" font-family="Times,serif" font-size="14.00" fill="#000000">&#45;1</text>
<polygon fill="#dddddd" stroke="transparent" points="8,-778 8,-800 158,-800 158,-778 8,-778"/>
<polygon fill="none" stroke="#000000" points="8,-778 8,-800 158,-800 158,-778 8,-778"/>
<text text-anchor="start" x="58.6988" y="-784.4" font-family="Times,serif" font-size="14.00" fill="#000000">IBlock 7</text>
<polygon fill="#dddddd" stroke="transparent" points="158,-778 158,-800 408,-800 408,-778 158,-778"/>
<polygon fill="none" stroke="#000000" points="158,-778 158,-800 408,-800 408,-778 158,-778"/>
<text text-anchor="start" x="277.1697" y="-784.4" font-family="Times,serif" font-size="14.00" fill="#000000">&#45;1</text>
<polygon fill="#ffffff" stroke="transparent" points="8,-756 8,-778 158,-778 158,-756 8,-756"/>
<polygon fill="none" stroke="#000000" points="8,-756 8,-778 158,-778 158,-756 8,-756"/>
<text text-anchor="start" x="58.6988" y="-762.4" font-family="Times,serif" font-size="14.00" fill="#000000">IBlock 8</text>
<polygon fill="#ffffff" stroke="transparent" points="158,-756 158,-778 408,-778 408,-756 158,-756"/>
<polygon fill="none" stroke="#000000" points="158,-756 158,-778 408,-778 408,-756 158,-756"/>
<text text-anchor="start" x="277.1697" y="-762.4" font-family="Times,serif" font-size="14.00" fill="#000000">&#45;1</text>
<polygon fill="#dddddd" stroke="transparent" points="8,-734 8,-756 158,-756 158,-734 8,-734"/>
<polygon fill="none" stroke="#000000" points="8,-734 8,-756 158,-756 158,-734 8,-734"/>
<text text-anchor="start" x="58.6988" y="-740.4" font-family="Times,serif" font-size="14.00" fill="#000000">IBlock 9</text>
<polygon fill="#dddddd" stroke="transparent" points="158,-734 158,-756 408,-756 408,-734 158,-734"/>
<polygon fill="none" stroke="#000000" points="158,-734 158,-756 408,-756 408,-734 158,-734"/>
<text text-anchor="start" x="277.1697" y="-740.4" font-family="Times,serif" font-size="14.00" fill="#000000">&#45;1</text>
<polygon fill="#ffffff" stroke="transparent" points="8,-712 8,-734 158,-734 158,-712 8,-712"/>
<polygon fill="none" stroke="#000000" points="8,-712 8,-734 158,-734 158,-712 8,-712"/>
<text text-anchor="start" x="55.1988" y="-718.4" font-family="Times,serif" font-size="14.00" fill="#000000">IBlock 10</text>
<polygon fill="#ffffff" stroke="transparent" points="158,-712 158,-734 408,-734 408,-712 158,-712"/>
<polygon fill="none" stroke="#000000" points="158,-712 158,-734 408,-734 408,-712 158,-712"/>
<text text-anchor="start" x="277.1697" y="-718.4" font-family="Times,serif" font-size="14.00" fill="#000000">&#45;1</text>
<polygon fill="#dddddd" stroke="transparent" points="8,-690 8,-712 158,-712 158,-690 8,-690"/>
<polygon fill="none" stroke="#000000" points="8,-690 8,-712 158,-712 158,-690 8,-690"/>
<text text-anchor="start" x="55.1988" y="-696.4" font-family="Times,serif" font-size="14.00" fill="#000000">IBlock 11</text>
<polygon fill="#dddddd" stroke="transparent" points="158,-690 158,-712 408,-712 408,-690 158,-690"/>
<polygon fill="none" stroke="#000000" points="158,-690 158,-712 408,-712 408,-690 158,-690"/>
<text text-anchor="start" x="277.1697" y="-696.4" font-family="Times,serif" font-size="14.00" fill="#000000">&#45;1</text>
<polygon fill="#333333" stroke="transparent" points="8,-668 8,-690 408,-690 408,-668 8,-668"/>
<polygon fill="none" stroke="#000000" points="8,-668 8,-690 408,-690 408,-668 8,-668"/>
<text text-anchor="start" x="165.041" y="-675.4" font-family="Times,serif" font-weight="bold" font-size="14.00" fill="#000000">Indirect Blocks</text>
<polygon fill="#ffffff" stroke="transparent" points="8,-646 8,-668 158,-668 158,-646 8,-646"/>
<polygon fill="none" stroke="#000000" points="8,-646 8,-668 158,-668 158,-646 8,-646"/>
<text text-anchor="start" x="55.1988" y="-652.4" font-family="Times,serif" font-size="14.00" fill="#000000">IBlock 12</text>
<polygon fill="#ffffff" stroke="transparent" points="158,-646 158,-668 408,-668 408,-646 158,-646"/>
<polygon fill="none" stroke="#000000" points="158,-646 158,-668 408,-668 408,-646 158,-646"/>
<text text-anchor="start" x="277.1697" y="-652.4" font-family="Times,serif" font-size="14.00" fill="#000000">&#45;1</text>
<polygon fill="#dddddd" stroke="transparent" points="8,-624 8,-646 158,-646 158,-624 8,-624"/>
<polygon fill="none" stroke="#000000" points="8,-624 8,-646 158,-646 158,-624 8,-624"/>
<text text-anchor="start" x="55.1988" y="-630.4" font-family="Times,serif" font-size="14.00" fill="#000000">IBlock 13</text>
<polygon fill="#dddddd" stroke="transparent" points="158,-624 158,-646 408,-646 408,-624 158,-624"/>
<polygon fill="none" stroke="#000000" points="158,-624 158,-646 408,-646 408,-624 158,-624"/>
<text text-anchor="start" x="277.1697" y="-630.4" font-family="Times,serif" font-size="14.00" fill="#000000">&#45;1</text>
<polygon fill="#ffffff" stroke="transparent" points="8,-602 8,-624 158,-624 158,-602 8,-602"/>
<polygon fill="none" stroke="#000000" points="8,-602 8,-624 158,-624 158,-602 8,-602"/>
<text text-anchor="start" x="55.1988" y="-608.4" font-family="Times,serif" font-size="14.00" fill="#000000">IBlock 14</text>
<polygon fill="#ffffff" stroke="transparent" points="158,-602 158,-624 408,-624 408,-602 158,-602"/>
<polygon fill="none" stroke="#000000" points="158,-602 158,-624 408,-624 408,-602 158,-602"/>
<text text-anchor="start" x="277.1697" y="-608.4" font-family="Times,serif" font-size="14.00" fill="#000000">&#45;1</text>
</g>
<!-- Bloque_1 -->
<g id="node4" class="node">
<title>Bloque_1</title>
<polygon fill="#333333" stroke="transparent" points="460,-974 460,-996 860,-996 860,-974 460,-974"/>
<polygon fill="none" stroke="#000000" points="460,-974 460,-996 860,-996 860,-974 460,-974"/>
<text text-anchor="start" x="632.7791" y="-981.4" font-family="Times,serif" font-weight="bold" font-size="14.00" fill="#000000">Bloque_1</text>
<polygon fill="#dddddd" stroke="transparent" points="460,-884 460,-974 610,-974 610,-884 460,-884"/>
<polygon fill="none" stroke="#000000" points="460,-884 460,-974 610,-974 610,-884 460,-884"/>
<text text-anchor="start" x="512.8338" y="-924.8" font-family="Times,serif" font-size="14.00" fill="#000000">Content</text>
<polygon fill="#dddddd" stroke="transparent" points="610,-884 610,-974 860,-974 860,-884 610,-884"/>
<polygon fill="none" stroke="#000000" points="610,-884 610,-974 860,-974 860,-884 610,-884"/>
<text text-anchor="start" x="711.6711" y="-958.4" font-family="Times,serif" font-size="14.00" fill="#000000">1,G,root</text>
<text text-anchor="start" x="686.3955" y="-941.6" font-family="Times,serif" font-size="14.00" fill="#000000">1,U,root,root,123</text>
<text text-anchor="start" x="696.1192" y="-924.8" font-family="Times,serif" font-size="14.00" fill="#000000">2,G,usuarios2</text>
<text text-anchor="start" x="692.6192" y="-908" font-family="Times,serif" font-size="14.00" fill="#000000">3,G,usuarios22</text>
<text text-anchor="start" x="710.1171" y="-891.2" font-family="Times,serif" font-size="14.00" fill="#000000">3,U,usua</text>
</g>
<!-- Inodo_1&#45;&gt;Bloque_1 -->
<g id="edge2" class="edge">
<title>Inodo_1&#45;&gt;Bloque_1</title>
<path fill="none" stroke="#000000" d="M416.1396,-911.9453C424.6327,-912.9223 433.1597,-913.9033 441.6721,-914.8826"/>
<polygon fill="#000000" stroke="#000000" points="441.3208,-918.3652 451.6553,-916.0311 442.1209,-911.4111 441.3208,-918.3652"/>
</g>
<!-- Bloque_2 -->
<g id="node5" class="node">
<title>Bloque_2</title>
<polygon fill="#333333" stroke="transparent" points="460,-836 460,-858 860,-858 860,-836 460,-836"/>
<polygon fill="none" stroke="#000000" points="460,-836 460,-858 860,-858 860,-836 460,-836"/>
<text text-anchor="start" x="632.7791" y="-843.4" font-family="Times,serif" font-weight="bold" font-size="14.00" fill="#000000">Bloque_2</text>
<polygon fill="#dddddd" stroke="transparent" points="460,-814 460,-836 610,-836 610,-814 460,-814"/>
<polygon fill="none" stroke="#000000" points="460,-814 460,-836 610,-836 610,-814 460,-814"/>
<text text-anchor="start" x="512.8338" y="-820.4" font-family="Times,serif" font-size="14.00" fill="#000000">Content</text>
<polygon fill="#dddddd" stroke="transparent" points="610,-814 610,-836 860,-836 860,-814 610,-814"/>
<polygon fill="none" stroke="#000000" points="610,-814 610,-836 860,-836 860,-814 610,-814"/>
<text text-anchor="start" x="674.737" y="-820.4" font-family="Times,serif" font-size="14.00" fill="#000000">rios22,user2,usuario2</text>
</g>
<!-- Inodo_1&#45;&gt;Bloque_2 -->
<g id="edge3" class="edge">
<title>Inodo_1&#45;&gt;Bloque_2</title>
<path fill="none" stroke="#000000" d="M416.1396,-864.0547C424.6327,-863.0777 433.1597,-862.0967 441.6721,-861.1174"/>
<polygon fill="#000000" stroke="#000000" points="442.1209,-864.5889 451.6553,-859.9689 441.3208,-857.6348 442.1209,-864.5889"/>
</g>
</g>
</svg>
